<svg width="512" height="512" viewBox="0 0 512 512" fill="none" xmlns="http://www.w3.org/2000/svg">
<rect width="512" height="512" fill="white"/>
<mask id="mask0_284_105" style="mask-type:luminance" maskUnits="userSpaceOnUse" x="94" y="56" width="324" height="400">
<path d="M417.517 240.576L309.844 348.286L417.517 455.997H294.479L186.768 348.286L294.479 240.576H417.517ZM294.479 56.0002L94.5 255.979L156.038 317.517L417.517 56.0002H294.479Z" fill="white"/>
</mask>
<g mask="url(#mask0_284_105)">
<path d="M186.807 348.286L248.306 409.824L417.516 240.576H294.479L186.807 348.286Z" fill="#39CEFD"/>
</g>
<mask id="mask1_284_105" style="mask-type:luminance" maskUnits="userSpaceOnUse" x="94" y="56" width="324" height="400">
<path d="M417.517 240.576L309.844 348.286L417.517 455.997H294.479L186.768 348.286L294.479 240.576H417.517ZM294.479 56.0002L94.5 255.979L156.038 317.517L417.517 56.0002H294.479Z" fill="white"/>
</mask>
<g mask="url(#mask1_284_105)">
<path d="M294.479 56.0002H417.517L156.038 317.517L94.5 255.979L294.479 56.0002Z" fill="#39CEFD"/>
</g>
<mask id="mask2_284_105" style="mask-type:luminance" maskUnits="userSpaceOnUse" x="94" y="56" width="324" height="400">
<path d="M417.517 240.576L309.844 348.286L417.517 455.997H294.479L186.768 348.286L294.479 240.576H417.517ZM294.479 56.0002L94.5 255.979L156.038 317.517L417.517 56.0002H294.479Z" fill="white"/>
</mask>
<g mask="url(#mask2_284_105)">
<path d="M248.307 409.824L294.479 455.959H417.517L309.845 348.286L248.307 409.824Z" fill="#03569B"/>
</g>
<mask id="mask3_284_105" style="mask-type:luminance" maskUnits="userSpaceOnUse" x="94" y="56" width="324" height="400">
<path d="M417.517 240.576L309.844 348.286L417.517 455.997H294.479L186.768 348.286L294.479 240.576H417.517ZM294.479 56.0002L94.5 255.979L156.038 317.517L417.517 56.0002H294.479Z" fill="white"/>
</mask>
<g mask="url(#mask3_284_105)">
<path d="M339.574 378.208L309.845 348.286L248.307 409.824L339.574 378.208Z" fill="url(#paint0_linear_284_105)"/>
</g>
<mask id="mask4_284_105" style="mask-type:luminance" maskUnits="userSpaceOnUse" x="94" y="56" width="324" height="400">
<path d="M417.517 240.576L309.844 348.286L417.517 455.997H294.479L186.768 348.286L294.479 240.576H417.517ZM294.479 56.0002L94.5 255.979L156.038 317.517L417.517 56.0002H294.479Z" fill="white"/>
</mask>
<g mask="url(#mask4_284_105)">
<path d="M186.807 348.248L248.345 286.71L309.883 348.248L248.345 409.824L186.807 348.248Z" fill="#16B9FD"/>
</g>
<path d="M417.517 240.576L309.844 348.286L417.517 455.997H294.479L186.768 348.286L294.479 240.576H417.517ZM294.479 56.0002L94.5 255.979L156.038 317.517L417.517 56.0002H294.479Z" fill="url(#paint1_radial_284_105)"/>
<defs>
<linearGradient id="paint0_linear_284_105" x1="266.26" y1="421.696" x2="269.084" y2="418.872" gradientUnits="userSpaceOnUse">
<stop stop-color="#1A237E" stop-opacity="0.4"/>
<stop offset="1" stop-color="#1A237E" stop-opacity="0"/>
</linearGradient>
<radialGradient id="paint1_radial_284_105" cx="0" cy="0" r="1" gradientUnits="userSpaceOnUse" gradientTransform="translate(103.574 83.2629) scale(30.1511)">
<stop stop-color="white" stop-opacity="0.1"/>
<stop offset="1" stop-color="white" stop-opacity="0"/>
</radialGradient>
</defs>
</svg>
