<svg width="512" height="512" viewBox="0 0 512 512" fill="none" xmlns="http://www.w3.org/2000/svg">
<rect width="512" height="512" fill="white"/>
<path d="M358.032 73.6558H107.461C90.6464 73.6558 77 87.4241 77 104.117V380.457C77 397.272 90.7683 410.918 107.461 410.918H272.558C270.731 328.796 298.755 169.425 358.092 73.4121L358.032 73.6558Z" fill="#0F80CC"/>
<path d="M348.893 82.6113H107.461C101.73 82.6274 96.2381 84.9111 92.1857 88.9635C88.1333 93.0159 85.8496 98.5076 85.8335 104.239V360.414C140.541 339.396 222.603 321.302 279.382 322.155C296.886 240.764 320.074 160.716 348.893 82.6113Z" fill="url(#paint0_linear_286_483)"/>
<path d="M416.516 64.6394C399.336 49.409 378.562 55.5011 358.031 73.6558L348.893 82.5504C313.802 119.713 281.879 188.676 271.157 241.373C274.977 249.719 277.996 258.409 280.173 267.326L281.514 273.418L282.854 279.632C282.854 279.632 282.549 278.413 281.27 274.758L280.417 272.321C280.246 271.87 280.063 271.423 279.869 270.981C276.375 263.676 272.574 256.521 268.477 249.537C266.26 256.014 264.168 262.534 262.202 269.092C270.243 283.835 275.117 309.057 275.117 309.057C275.117 309.057 274.691 307.412 272.68 301.746C270.852 296.69 261.958 281.033 259.887 277.378C256.231 290.781 254.83 299.797 256.109 301.99C258.546 306.255 260.983 314.174 263.115 321.729C266.405 335.125 269.089 348.664 271.157 362.303L271.462 366.08C270.83 381.314 271.135 396.574 272.375 411.771C273.959 430.839 276.945 447.227 280.722 456L283.28 454.599C277.798 437.297 275.483 414.695 276.457 388.56C277.98 348.656 287.119 300.528 304.116 250.389C332.932 174.055 372.653 113.255 409.084 84.2562C375.881 114.23 330.982 211.217 317.579 247.1C302.532 287.308 291.87 325.079 285.413 361.206C296.5 327.334 332.322 312.712 332.322 312.712C332.322 312.712 349.99 291.024 370.459 260.015L331.165 270.494L318.493 276.098C318.493 276.098 350.782 256.421 378.623 247.465C416.821 187.336 458.43 101.863 416.516 64.5785" fill="#003B57"/>
<defs>
<linearGradient id="paint0_linear_286_483" x1="237.589" y1="88.277" x2="237.589" y2="345.001" gradientUnits="userSpaceOnUse">
<stop stop-color="#97D9F6"/>
<stop offset="0.92024" stop-color="#0F80CC"/>
<stop offset="1" stop-color="#0F80CC"/>
</linearGradient>
</defs>
</svg>
