<svg width="512" height="512" viewBox="0 0 512 512" fill="none" xmlns="http://www.w3.org/2000/svg">
<rect width="512" height="512" fill="white"/>
<path d="M302.562 81C478.422 198.344 421.391 327.328 421.391 327.328C421.391 327.328 471.312 382.562 451.234 431C451.234 431 430.531 397.172 396.078 397.172C362.797 397.172 343.188 431 276 431C126.781 431 56 308.656 56 308.656C190.531 395.688 282.484 333.969 282.484 333.969C221.703 299.516 92.875 134.594 92.875 134.594C205.219 228.344 253.656 252.953 253.656 252.953C224.516 229.516 143.266 114.906 143.266 114.906C208.266 179.359 337.484 269.281 337.484 269.281C374.516 169.906 302.562 81 302.562 81Z" fill="#FF5722"/>
</svg>
