<svg width="512" height="512" viewBox="0 0 512 512" fill="none" xmlns="http://www.w3.org/2000/svg">
<rect width="512" height="512" fill="white"/>
<g clip-path="url(#clip0_286_625)">
<path d="M175.991 179.476H153.923L214.142 349.679L247.825 253.364L221.647 179.476H198.327V163.215H301.521V179.476H277.398L337.617 349.679L359.239 287.852C387.651 208.602 336.009 183.943 336.009 166.252C336.009 148.562 350.304 134.267 367.995 134.267C368.977 134.267 369.871 134.356 370.764 134.445C340.833 106.033 300.449 88.6111 255.955 88.6111C197.881 88.6111 146.686 118.184 116.666 163.215H175.902L175.991 179.476Z" fill="#00769D"/>
<path d="M88.6113 255.955C88.6113 320.016 124.618 375.678 177.51 403.822L102.013 190.376C93.436 210.478 88.6113 232.726 88.6113 255.955Z" fill="#00769D"/>
<path d="M401.589 173.49C404.001 187.606 403.286 203.42 399.623 219.324H400.249L397.747 226.561C396.228 231.743 394.352 237.104 392.207 242.375L334.669 403.644C387.472 375.5 423.389 319.927 423.389 255.955C423.3 226.025 415.437 197.881 401.589 173.49Z" fill="#00769D"/>
<path d="M204.403 415.169C220.664 420.44 237.997 423.299 256.045 423.299C273.199 423.299 289.817 420.708 305.363 415.884L256.402 277.577L204.403 415.169Z" fill="#00769D"/>
<path d="M397.389 114.611C359.596 76.8175 309.384 56 255.955 56C202.527 56 152.314 76.8175 114.521 114.611C76.7282 152.404 56 202.527 56 255.955C56 309.384 76.8175 359.596 114.611 397.389C152.404 435.182 202.616 456 256.045 456C309.473 456 359.686 435.182 397.479 397.389C435.272 359.596 456.089 309.384 456.089 255.955C456 202.527 435.182 152.314 397.389 114.611ZM255.955 441.883C153.476 441.883 70.1166 358.524 70.1166 256.045C70.1166 153.565 153.476 70.2059 255.955 70.2059C358.435 70.2059 441.794 153.565 441.794 256.045C441.794 358.524 358.524 441.883 255.955 441.883Z" fill="#00769D"/>
</g>
<defs>
<clipPath id="clip0_286_625">
<rect width="400" height="400" fill="white" transform="translate(56 56)"/>
</clipPath>
</defs>
</svg>
