<svg width="512" height="512" viewBox="0 0 512 512" fill="none" xmlns="http://www.w3.org/2000/svg">
<rect width="512" height="512" fill="white"/>
<g clip-path="url(#clip0_284_143)">
<path d="M456 256C456 294.125 445.297 329.75 426.781 360.062C415.062 379.203 400.297 396.234 383.031 410.375C381.234 411.859 379.438 413.266 377.562 414.672C362.797 426 346.469 435.297 328.891 442.172C306.391 451.156 281.781 456 256 456C230.219 456 205.609 451.156 183.031 442.25C165.453 435.375 149.125 426.078 134.359 414.75C114.828 399.75 98.1094 381.234 85.2188 360.062C66.7031 329.75 56 294.125 56 256C56 145.531 145.531 56 256 56C304.281 56 348.578 73.1094 383.109 101.547C427.641 138.266 456 193.812 456 256Z" fill="#F0EFEB"/>
<path d="M328.969 246.859V442.328C306.391 451.156 281.781 456 256 456C230.219 456 205.609 451.156 183.031 442.25V246.859L230.531 219.438V414.75L256 429.437L281.469 414.75V219.438L328.969 246.859Z" fill="#F36306"/>
<path d="M426.781 190.375V360.141C415.062 379.281 400.297 396.312 383.031 410.453C381.234 411.938 379.438 413.344 377.562 414.75V218.734L256 148.5L134.359 218.734V414.75C114.828 399.75 98.1094 381.234 85.2188 360.062V190.375L256 91.7031L426.781 190.375Z" fill="#F36306"/>
</g>
<defs>
<clipPath id="clip0_284_143">
<rect width="400" height="400" fill="white" transform="translate(56 56)"/>
</clipPath>
</defs>
</svg>
