<svg width="512" height="512" viewBox="0 0 512 512" fill="none" xmlns="http://www.w3.org/2000/svg">
<rect width="512" height="512" fill="white"/>
<path d="M254.75 57.25L265.375 77.25C267.875 81 270.375 84.125 273.5 87.25C282.25 96 291 105.375 298.5 115.375C316.625 139.125 328.5 165.375 337.25 194.125C342.25 211.625 345.375 229.125 345.375 247.25C346 301 327.875 347.875 290.375 386C284.125 392.25 277.875 397.875 271 402.875C267.25 402.875 265.375 399.75 264.125 397.25C261 392.25 259.75 387.25 258.5 381.625C257.25 375.375 256.625 368.5 256.625 361.625V358.5C256.625 358.5 253.5 58.5 254.75 57.25Z" fill="#599636"/>
<path d="M254.75 56.6249C254.125 55.9999 254.125 56.6249 253.5 56.6249C253.5 60.9999 252.25 64.7499 249.75 68.4999C247.25 72.2499 243.5 74.7499 240.375 77.8749C221 94.7499 206 114.75 193.5 137.875C177.25 168.5 168.5 201 166.625 235.375C165.375 247.875 170.375 291.625 174.75 304.125C185.375 337.875 204.75 366 229.75 390.375C236 396 242.25 401.625 249.125 407.25C251 407.25 251 405.375 251.625 404.125C252.25 401.625 252.875 398.5 253.5 395.375L257.875 362.875L254.75 56.6249Z" fill="#6CAC48"/>
<path d="M265.375 416.625C266 411.625 268.5 407.25 271 403.5C268.5 402.25 266.625 400.375 264.75 397.875C263.5 396 262.25 392.875 261.625 390.375C258.5 381 257.875 371.625 257.25 362.25V356.625C256 357.25 256 364.75 256 366C255.375 376 254.125 386 252.25 395.375C251.625 399.125 251 403.5 248.5 406.625C248.5 407.25 248.5 407.25 248.5 407.875C252.25 419.125 253.5 431 254.125 442.875V447.25C254.125 452.25 254.125 451.625 258.5 452.875C260.375 453.5 262.25 453.5 264.125 454.75C265.375 454.75 265.375 453.5 265.375 452.875L264.75 445.375V425.375C264.125 423.5 264.75 419.75 265.375 416.625Z" fill="#C2BFBF"/>
</svg>
