<svg width="512" height="512" viewBox="0 0 512 512" fill="none" xmlns="http://www.w3.org/2000/svg">
<rect width="512" height="512" fill="white"/>
<g clip-path="url(#clip0_284_172)">
<path fill-rule="evenodd" clip-rule="evenodd" d="M146.947 126.945C142.332 126.945 139.079 127.499 135.793 128.311V128.859H136.327C138.523 133.202 142.332 136.213 145.034 140.019C147.226 144.373 149.127 148.709 151.301 153.063C151.573 152.799 151.834 152.516 151.834 152.516C155.666 149.808 157.568 145.454 157.568 138.914C155.927 137.001 155.666 135.111 154.298 133.201C152.669 130.485 149.127 129.125 146.947 126.945Z" fill="#00758F"/>
<path fill-rule="evenodd" clip-rule="evenodd" d="M424.444 363.371C402.669 362.826 385.81 365 371.664 370.989C367.582 372.619 361.065 372.619 360.504 377.79C362.694 379.964 362.955 383.494 364.875 386.503C368.133 391.941 373.833 399.275 379.015 403.096C384.725 407.45 390.442 411.787 396.436 415.596C407.034 422.152 419.011 425.944 429.332 432.478C435.337 436.281 441.304 441.174 447.31 445.266C450.29 447.441 452.18 450.983 456 452.328V451.505C454.087 449.065 453.548 445.528 451.658 442.792C448.938 440.09 446.214 437.626 443.489 434.919C435.593 424.309 425.79 415.068 415.203 407.45C406.49 401.45 387.433 393.287 383.914 383.251C383.914 383.251 383.63 382.962 383.363 382.694C389.346 382.144 396.436 379.964 402.141 378.312C411.376 375.872 419.812 376.422 429.332 373.981C433.691 372.885 438.045 371.517 442.416 370.178V367.715C437.494 362.826 433.975 356.287 428.804 351.667C414.941 339.701 399.689 328.013 383.913 318.204C375.466 312.76 364.584 309.241 355.604 304.602C352.358 302.968 346.919 302.162 345.007 299.426C340.108 293.443 337.378 285.563 333.847 278.48C325.968 263.533 318.333 246.946 311.543 231.14C306.65 220.536 303.653 209.935 297.67 200.135C269.634 153.876 239.173 125.871 192.381 98.3882C182.311 92.6632 170.345 90.2194 157.567 87.228C150.755 86.9413 143.96 86.414 137.159 86.1468C132.8 84.2335 128.44 79.0601 124.636 76.6132C109.124 66.8226 69.1489 45.6062 57.7161 73.6226C50.3708 91.3163 68.5981 108.721 74.8591 117.701C79.4802 123.951 85.4747 131.035 88.7216 138.099C90.6286 142.726 91.1739 147.63 93.0872 152.52C97.4349 164.489 101.511 177.824 107.233 188.984C110.219 194.698 113.477 200.692 117.286 205.835C119.483 208.847 123.281 210.189 124.098 215.102C120.3 220.534 120.005 228.697 117.832 235.503C108.045 266.248 111.849 304.334 125.728 326.91C130.071 333.71 140.419 348.68 154.298 342.952C166.536 338.065 163.818 322.556 167.354 308.961C168.166 305.674 167.621 303.517 169.25 301.344V301.894C173.053 309.501 176.873 316.83 180.41 324.47C188.851 337.787 203.531 351.666 215.786 360.909C222.297 365.824 227.468 374.242 235.631 377.245V376.423H235.092C233.457 373.982 231.016 372.886 228.836 370.99C223.937 366.091 218.511 360.102 214.685 354.664C203.264 339.434 193.183 322.558 184.225 305.148C179.859 296.695 176.062 287.454 172.519 279.023C170.89 275.776 170.89 270.863 168.165 269.237C164.072 275.215 158.106 280.391 155.115 287.715C149.943 299.425 149.405 313.844 147.486 328.813C146.402 329.097 146.947 328.813 146.402 329.352C137.705 327.178 134.714 318.204 131.438 310.608C123.281 291.269 121.908 260.255 128.991 237.946C130.887 232.244 139.073 214.289 135.792 208.848C134.151 203.657 128.713 200.694 125.727 196.595C122.197 191.426 118.365 184.91 115.94 179.185C109.407 163.955 106.126 147.081 99.0755 131.851C95.806 124.766 90.0841 117.418 85.4739 110.901C80.2911 103.553 74.5864 98.3874 70.4989 89.6913C69.1481 86.6905 67.2411 81.7921 69.4091 78.5366C69.9489 76.3569 71.0505 75.5366 73.2302 74.9866C76.7489 71.9976 86.8255 75.7984 90.3567 77.4327C100.427 81.4999 108.862 85.3319 117.286 91.0335C121.1 93.7616 125.183 98.9265 130.07 100.301H135.792C144.493 102.188 154.297 100.828 162.465 103.286C176.872 107.907 189.929 114.71 201.633 122.055C237.259 144.64 266.647 176.749 286.497 215.103C289.767 221.35 291.141 227.069 294.126 233.585C299.843 246.945 306.922 260.546 312.621 273.591C318.331 286.38 323.786 299.425 331.954 310.051C336.025 315.757 352.356 318.748 359.702 321.745C365.129 324.187 373.575 326.366 378.475 329.352C387.728 335.058 396.958 341.597 405.677 347.864C410.02 351.126 423.627 357.922 424.444 363.371Z" fill="#00758F"/>
</g>
<defs>
<clipPath id="clip0_284_172">
<rect width="400" height="400" fill="white" transform="translate(56 56)"/>
</clipPath>
</defs>
</svg>
