<svg width="512" height="512" viewBox="0 0 512 512" fill="none" xmlns="http://www.w3.org/2000/svg">
<rect width="512" height="512" fill="white"/>
<g clip-path="url(#clip0_286_221)">
<path d="M456 256C456 366.457 366.457 456 256 456C154.09 456 69.9836 379.78 57.5836 281.233C56.5391 272.971 56 264.547 56 256C56 240.343 57.7961 225.102 61.2 210.481C81.8039 121.959 161.2 56 256 56C350.563 56 429.804 121.633 450.637 209.829C453.371 221.363 455.094 233.282 455.723 245.486C455.91 248.971 456 252.473 456 256Z" fill="#F2F2F2"/>
<path d="M245.996 272.062V220.062L200.964 194.063L155.932 220.062V272.062L200.964 298.061L245.996 272.062Z" fill="#3B8739"/>
<path d="M423.347 264.171L452.694 281.118L423.347 298.065L378.318 272.065V220.065L423.347 194.065L450.637 209.828C453.372 221.363 455.094 233.281 455.723 245.485L439.037 255.118V237.004L423.347 227.951L407.657 237.004V255.118L423.347 264.171Z" fill="#333333"/>
<path d="M432.087 251.109V241.016L423.346 235.969L414.604 241.016V251.109L423.346 256.157L432.087 251.109Z" fill="#66A060"/>
<path d="M134.661 220.066V288.637L104.628 271.502V236.352L89.6328 227.69L74.6367 236.351V271.502L57.5836 281.233C56.5391 272.971 56 264.547 56 256C56 240.343 57.7961 225.102 61.2 210.481L89.6328 194.065L134.661 220.066Z" fill="#333333"/>
<path d="M245.992 272.055L200.96 194.061L155.93 220.059L200.962 298.054L245.992 272.055Z" fill="#6DA75D"/>
<path d="M155.932 272.062L171.394 246.846L155.932 220.062V272.062Z" fill="#55A344"/>
<path d="M230.983 246.06L245.996 220.062L200.963 194.063L230.983 246.06Z" fill="#639D57"/>
<path d="M326.743 133.796V202.784L311.649 194.065L266.612 220.065V272.065L311.649 298.065L356.678 272.065V149.82L326.743 133.796ZM326.661 254.727L311.648 263.396L296.636 254.727V237.396L311.648 228.727L326.661 237.396V254.727Z" fill="#333333"/>
<path d="M276.43 336.248C276.43 336.248 275.545 328.647 267.415 328.647C259.284 328.647 253.716 329.707 253.716 334.215C253.716 338.723 269.537 338.723 275.547 340.49C281.557 342.257 286.859 346.853 284.208 354.984C281.556 363.116 273.425 363.999 260.875 363.999C248.325 363.999 245.496 353.57 245.496 349.505H252.566C252.566 349.505 251.682 355.868 259.99 356.928C268.298 357.988 276.241 358.585 277.312 352.156C278.727 343.671 250.445 347.914 247.97 339.606C245.879 332.587 247.085 323.345 261.227 321.93C275.368 320.515 283.145 326.759 283.145 336.071L276.43 336.248Z" fill="#66A060"/>
<path d="M208.128 369.384L223.759 378.408C231.613 382.942 241.43 377.274 241.43 368.205V352.391V323.287H235.059V366.434C235.059 371.386 229.698 374.482 225.408 372.005L214.498 365.706V319.659L254.375 296.638L294.253 319.659V365.706L254.375 388.727L242.888 382.095L235.386 385.12L254.375 396.084L300.623 369.381V315.982L254.375 289.281L208.127 315.984V369.384H208.128Z" fill="#66A060"/>
</g>
<defs>
<clipPath id="clip0_286_221">
<rect width="400" height="400" fill="white" transform="translate(56 56)"/>
</clipPath>
</defs>
</svg>
