<svg width="512" height="512" viewBox="0 0 512 512" fill="none" xmlns="http://www.w3.org/2000/svg">
<rect width="512" height="512" fill="white"/>
<g clip-path="url(#clip0_286_334)">
<path d="M424.359 148.315C409.438 124.944 377.438 115.236 334.202 120.809C332.674 120.989 331.056 121.258 329.528 121.438C328.899 120 328.269 118.562 327.55 117.124C308.944 77.7528 283.595 56 255.91 56C228.225 56 202.786 77.7528 184.269 117.124C183.64 118.562 182.921 120 182.292 121.438C180.674 121.169 179.146 120.989 177.618 120.809C134.382 115.146 102.382 124.944 87.4605 148.315C72.5391 171.685 77.1234 204.764 100.314 241.618C103.371 246.472 106.696 251.326 110.292 256.09C106.696 260.944 103.371 265.708 100.314 270.562C77.1234 307.326 72.5391 340.584 87.4605 363.865C99.5953 382.921 123.056 392.899 154.786 392.899C162.337 392.899 169.977 392.36 177.528 391.371C179.056 391.191 180.674 390.921 182.202 390.742C182.831 392.18 183.46 393.618 184.18 395.056C202.786 434.427 228.135 456.18 255.82 456.18C283.505 456.18 308.944 434.427 327.46 395.056C328.09 393.618 328.809 392.18 329.438 390.742C331.056 391.011 332.584 391.191 334.112 391.371C341.663 392.36 349.213 392.899 356.854 392.899C388.584 392.899 412.045 382.921 424.18 363.865C439.101 340.494 434.517 307.416 411.326 270.562C408.269 265.708 404.944 260.854 401.348 256.09C404.944 251.236 408.269 246.472 411.326 241.618C434.786 204.674 439.371 171.506 424.359 148.315ZM200.629 124.764C215.82 92.4045 235.955 73.9775 256 73.9775C276.045 73.9775 296.18 92.4944 311.371 124.764C311.371 124.854 311.371 124.854 311.46 124.944C292.404 129.528 273.798 135.91 255.91 143.91C238.022 135.82 219.416 129.528 200.359 124.944C200.539 124.944 200.539 124.854 200.629 124.764ZM336.899 256C336.899 270.382 336.09 284.674 334.562 298.966C323.416 307.955 311.64 316.404 299.595 324.135C285.573 333.124 271.011 341.213 256 348.315C240.989 341.124 226.427 333.124 212.404 324.135C200.269 316.404 188.584 308.045 177.438 298.966C174.292 270.382 174.292 241.528 177.438 212.944C201.618 193.528 228.045 176.989 256.09 163.685C271.101 170.787 285.663 178.876 299.685 187.865C311.82 195.596 323.505 203.955 334.651 213.034C336.09 227.326 336.899 241.618 336.899 256ZM353.977 229.843C362.786 238.022 371.056 246.742 378.786 256C371.056 265.169 362.786 273.888 353.977 282.157C354.517 273.528 354.786 264.809 354.786 256C354.786 247.191 354.517 238.472 353.977 229.843ZM330.876 324.494C328 340.045 323.955 355.326 318.562 370.157C304.629 367.011 290.966 362.786 277.663 357.573C288.269 352 298.876 345.888 309.303 339.236C316.674 334.562 323.865 329.618 330.876 324.494ZM234.337 357.573C221.033 362.876 207.371 367.101 193.438 370.157C188.045 355.326 184 340.045 181.123 324.494C188.045 329.618 195.236 334.562 202.696 339.236C213.123 345.978 223.73 352.09 234.337 357.573ZM157.932 282.157C149.123 273.978 140.854 265.258 133.123 256C140.854 246.831 149.123 238.022 157.932 229.843C157.393 238.472 157.123 247.191 157.123 256C157.123 264.809 157.393 273.528 157.932 282.157ZM181.123 187.506C184 171.955 188.045 156.674 193.438 141.843C207.371 144.989 221.033 149.213 234.337 154.427C223.73 160 213.123 166.112 202.696 172.764C195.326 177.438 188.135 182.382 181.123 187.506ZM309.213 172.674C298.786 166.022 288.18 159.82 277.483 154.337C290.786 149.034 304.449 144.809 318.382 141.753C323.685 156.584 327.82 171.865 330.696 187.416C323.865 182.382 316.674 177.438 309.213 172.674ZM115.595 231.91C96.5391 201.708 91.865 174.742 102.651 157.843C111.281 144.36 129.977 137.079 155.146 137.079C161.887 137.079 168.629 137.528 175.371 138.427H175.55C168.269 159.551 163.236 181.393 160.449 203.506C146.607 215.011 133.753 227.685 121.977 241.258C119.73 238.292 117.573 235.146 115.595 231.91ZM175.281 373.393C168.539 374.292 161.798 374.742 155.056 374.742C129.798 374.742 111.191 367.551 102.562 353.978C91.7751 337.079 96.4492 310.112 115.505 279.91C117.483 276.764 119.64 273.528 121.887 270.382C133.663 283.955 146.607 296.629 160.359 308.135C163.146 330.337 168.18 352.09 175.46 373.213C175.46 373.393 175.371 373.393 175.281 373.393ZM311.371 387.236C296.18 419.595 276.045 438.022 256 438.022C235.955 438.022 215.82 419.506 200.629 387.236C200.629 387.146 200.629 387.146 200.539 387.056C219.595 382.472 238.202 376.09 256.09 368.09C273.977 376.18 292.584 382.472 311.64 387.056C311.46 387.056 311.46 387.146 311.371 387.236ZM396.404 280.09C415.46 310.292 420.135 337.258 409.348 354.157C398.562 371.056 372.135 378.157 336.719 373.483H336.539C343.82 352.36 348.854 330.517 351.64 308.404C365.483 296.899 378.337 284.225 390.112 270.652C392.269 273.708 394.427 276.854 396.404 280.09ZM351.46 203.685C348.674 181.483 343.64 159.73 336.359 138.607H336.539C371.865 134.022 398.382 141.034 409.168 157.933C419.955 174.831 415.281 201.798 396.225 232C394.247 235.146 392.09 238.382 389.842 241.528C378.157 227.865 365.303 215.191 351.46 203.685Z" fill="url(#paint0_linear_286_334)"/>
<path d="M256 220.494C236.404 220.494 220.494 236.404 220.494 256C220.494 275.596 236.404 291.506 256 291.506C275.595 291.506 291.505 275.596 291.505 256C291.505 236.404 275.595 220.494 256 220.494ZM256 273.618C246.292 273.618 238.382 265.708 238.382 256C238.382 246.292 246.292 238.382 256 238.382C265.708 238.382 273.618 246.292 273.618 256C273.528 265.708 265.708 273.618 256 273.618Z" fill="url(#paint1_linear_286_334)"/>
</g>
<defs>
<linearGradient id="paint0_linear_286_334" x1="256.021" y1="40.6021" x2="256.021" y2="475.819" gradientUnits="userSpaceOnUse">
<stop stop-color="#00EFD1"/>
<stop offset="1" stop-color="#00ACEA"/>
</linearGradient>
<linearGradient id="paint1_linear_286_334" x1="255.994" y1="40.6021" x2="255.994" y2="475.819" gradientUnits="userSpaceOnUse">
<stop stop-color="#00EFD1"/>
<stop offset="1" stop-color="#00ACEA"/>
</linearGradient>
<clipPath id="clip0_286_334">
<rect width="400" height="400" fill="white" transform="translate(56 56)"/>
</clipPath>
</defs>
</svg>
