<svg width="512" height="512" viewBox="0 0 512 512" fill="none" xmlns="http://www.w3.org/2000/svg">
<rect width="512" height="512" fill="white"/>
<path d="M352.077 347.204C354.622 326.007 353.859 322.898 369.648 326.331L373.656 326.683C385.796 327.235 401.677 324.73 411.007 320.396C431.091 311.077 443.001 295.517 423.197 299.606C378.023 308.925 374.917 293.628 374.917 293.628C422.618 222.852 442.559 133.008 425.347 111.016C378.4 51.0292 297.138 79.3953 295.779 80.132L295.346 80.2118C286.421 78.3599 276.431 77.2533 265.21 77.0718C244.766 76.7355 229.255 82.4313 217.488 91.3562C217.488 91.3562 72.5206 31.6309 79.2643 166.466C80.6986 195.149 120.379 383.508 167.704 326.614C185.002 305.811 201.718 288.22 201.718 288.22C210.019 293.735 219.956 296.548 230.38 295.537L231.185 294.851C230.933 297.434 231.044 299.96 231.507 302.951C219.317 316.573 222.899 318.966 198.525 323.983C173.864 329.065 188.352 338.114 197.809 340.479C209.277 343.346 235.806 347.408 253.735 322.314L253.021 325.178C257.803 329.003 257.48 352.678 258.158 369.592C258.837 386.508 259.97 402.293 263.418 411.599C266.866 420.904 270.934 444.875 302.968 438.01C329.741 432.273 350.211 424.015 352.076 347.201" fill="black"/>
<path d="M292.524 456C277.962 456.001 268.454 450.343 262.67 444.883C253.979 436.681 250.56 426.209 248.519 419.952C248.199 418.97 247.896 418.044 247.671 417.435C243.577 406.383 242.194 390.585 241.378 370.267C241.258 367.263 241.168 364.051 241.076 360.773C241.02 358.753 240.955 356.414 240.87 353.965C227.101 360.002 210.965 361.08 193.735 356.772C186.03 354.845 178.042 350.949 173.072 344.972C159.349 356.379 146.31 354.702 139.127 352.308C126.304 348.03 114.882 336.119 104.208 315.892C96.6806 301.628 89.4035 283.06 82.58 260.702C70.7075 221.802 63.1661 180.786 62.492 167.306C60.3679 124.846 71.8517 94.4453 96.6227 76.9475C117.08 62.4966 145.048 58.0591 179.746 63.7549C194.5 66.1769 207.273 69.9715 215.236 72.6626C229.613 64.1303 246.451 59.9658 265.485 60.2825C275.647 60.4468 285.329 61.3344 294.336 62.9228C304.007 59.9236 322.555 55.7505 343.668 56.0125C383.261 56.4849 416.078 71.9267 438.571 100.667C453.968 120.342 448.245 159.144 440.733 188.229C432.315 220.819 417.694 255.441 399.713 285.801C404.476 285.665 411.004 284.976 419.802 283.16C441.748 278.628 447.839 291.535 449.181 295.599C455.984 316.193 427.092 331.445 418.074 335.63C406.665 340.93 388.087 344.151 372.89 343.46L372.187 343.413L369.457 343.174C369.376 343.866 369.295 344.562 369.216 345.242C369.098 346.25 368.975 347.307 368.844 348.413C367.825 387.566 362.191 412.415 350.605 428.913C338.348 446.363 321.406 451.236 306.487 454.433C301.387 455.524 296.743 456 292.524 456ZM263.511 312.065C273.096 319.732 273.922 333.718 274.65 359.838C274.738 362.975 274.823 366.047 274.938 368.921C275.281 377.456 276.083 397.446 279.166 405.767C279.621 406.995 280.023 408.227 280.449 409.532C283.929 420.196 285.371 424.609 299.451 421.592C311.869 418.931 318.233 416.569 323.121 409.61C330.435 399.195 334.53 378.061 335.289 346.795L352.069 347.204L335.404 345.203C335.566 343.848 335.715 342.568 335.856 341.361C337.313 328.844 338.463 318.957 347.397 312.575C353.035 308.546 359.376 308.01 364.875 308.51C360.337 303.884 358.9 299.139 358.46 296.973L357.061 290.079L360.992 284.246C381.804 253.368 398.992 215.404 408.149 180.09C417.494 144.056 414.861 124.967 412.123 121.367C374.799 73.6785 309.852 93.1463 302.694 95.4894L301.441 96.169L295.154 97.3264L291.935 96.6578C283.765 94.963 274.682 94.0238 264.939 93.8658C249.81 93.6288 237.611 97.1739 227.637 104.739L219.979 110.547L211.092 106.886C193.712 99.7829 142.692 85.4712 115.956 104.415C101.229 114.848 94.5275 135.444 96.0377 165.63C96.5601 176.079 103.657 215.303 115.36 253.025C131.442 304.861 145.634 319.259 149.667 320.431C150.171 320.22 151.959 319.289 154.796 315.878C172.246 294.89 188.848 277.39 189.546 276.655L199.264 266.429L211.013 274.236C215.056 276.923 219.499 278.489 224.063 278.862L251.948 255.104L247.901 296.488C247.823 297.271 247.789 298.344 248.104 300.385L249.319 308.233L244.022 314.153C243.974 314.205 243.927 314.259 243.88 314.312L256.907 320.323L263.511 312.065Z" fill="black"/>
<path d="M423.2 299.605C378.022 308.924 374.916 293.628 374.916 293.628C422.617 222.847 442.558 133.001 425.35 111.012C378.404 51.0285 297.138 79.3962 295.782 80.1329L295.345 80.2111C286.419 78.3584 276.43 77.2541 265.204 77.0711C244.761 76.7364 229.255 82.4306 217.488 91.3531C217.488 91.3531 72.5172 31.631 79.2593 166.465C80.6936 195.151 120.373 383.508 167.7 326.616C184.999 305.812 201.712 288.222 201.712 288.222C210.014 293.736 219.951 296.55 230.37 295.539L231.179 294.852C230.928 297.436 231.043 299.962 231.504 302.953C219.312 316.575 222.894 318.967 198.521 323.984C173.859 329.067 188.347 338.115 197.807 340.48C209.274 343.348 235.805 347.41 253.73 322.316L253.015 325.179C257.792 329.005 261.147 350.068 260.585 369.161C260.023 388.255 259.647 401.363 263.411 411.602C267.175 421.84 270.927 444.878 302.967 438.013C329.74 432.275 343.614 417.408 345.543 392.607C346.913 374.975 350.013 377.582 350.208 361.819L352.694 354.356C355.561 330.456 353.15 322.745 369.644 326.331L373.652 326.683C385.792 327.235 401.681 324.73 411.007 320.396C431.087 311.077 442.997 295.517 423.197 299.606H423.2V299.605Z" fill="#336791"/>
<path d="M294.125 445.591C267.166 445.594 258.631 424.254 255.138 415.523C250.021 402.725 248.909 354.885 250.076 313.149C250.162 310.059 252.74 307.642 255.828 307.709C258.919 307.796 261.354 310.372 261.268 313.461C259.968 359.942 261.801 402.031 265.533 411.365C271.318 425.822 280.095 438.471 304.879 433.158C328.786 428.033 337.289 419.425 341.273 396.32C344.319 378.667 350.346 328.393 351.091 318.461C351.322 315.378 354.017 313.07 357.092 313.299C360.174 313.529 362.486 316.217 362.254 319.3C361.478 329.648 355.47 379.877 352.304 398.222C347.577 425.636 335.359 438.072 307.224 444.105C302.434 445.132 298.08 445.591 294.125 445.591Z" fill="white"/>
<path d="M149.356 342.289C146.755 342.289 144.395 341.811 142.349 341.128C124.865 335.297 108.25 306.949 92.9646 256.872C81.351 218.826 73.9942 179.099 73.3482 166.182C71.4282 127.797 81.3331 100.627 102.789 85.4264C145.178 55.3945 216.372 83.9491 219.382 85.1785C222.242 86.3485 223.614 89.6167 222.445 92.4783C221.275 95.3406 218.008 96.7116 215.145 95.5416C214.326 95.2077 146.56 68.1077 109.241 94.575C91.1284 107.42 82.8143 131.324 84.5301 165.622C85.0729 176.468 91.9331 215.143 103.673 253.603C117.241 298.053 132.628 326.084 145.891 330.508C147.925 331.187 154.116 333.251 163.079 322.475C180.299 301.758 196.119 285.221 196.277 285.057C198.417 282.824 201.96 282.749 204.192 284.89C206.424 287.028 206.499 290.571 204.36 292.803C204.204 292.965 188.644 309.233 171.687 329.634C163.552 339.413 155.734 342.288 149.356 342.289Z" fill="white"/>
<path d="M374.596 298.667C373.52 298.667 372.432 298.357 371.472 297.711C368.909 295.983 368.231 292.504 369.958 289.939C418.085 218.525 435.046 132.327 420.625 113.898C402.474 90.7046 376.838 78.5803 344.429 77.8647C320.457 77.3353 301.279 83.4674 298.125 84.5459C297.863 84.6765 297.586 84.7883 297.297 84.879C293.905 85.9434 291.294 84.0774 290.309 81.8939C289.145 79.3123 290.1 76.2584 292.524 74.7928C294.617 73.5266 316.65 66.3684 343.03 66.6453C379.201 67.0293 409.081 80.9828 429.442 106.999C443.18 124.555 434.113 167.298 429.577 184.86C419.825 222.619 401.478 263.198 379.243 296.196C378.162 297.801 376.394 298.667 374.596 298.667Z" fill="white"/>
<path d="M377.066 331.774C368.748 331.775 361.281 330.599 356.811 327.922C352.102 325.102 351.203 321.247 351.086 319.2C349.863 297.735 361.355 293.481 367.729 291.643C366.918 290.48 365.851 289.148 364.752 287.775C361.165 283.293 356.251 277.153 352.457 267.956C351.878 266.549 350.032 263.241 347.896 259.409C336.243 238.512 311.994 195.026 327.668 172.622C334.873 162.323 349.085 158.197 369.979 160.322C367.201 152.067 360.238 136.764 347.381 121.57C332.459 103.939 306.02 82.7807 264.791 82.1042C243.869 81.7555 226.692 88.1809 213.796 101.187C184.89 130.341 185.87 183.395 185.883 183.927C185.96 187.016 183.52 189.586 180.431 189.665C177.367 189.725 174.773 187.307 174.691 184.218C174.628 181.853 173.537 125.934 205.807 93.3417C220.937 78.0626 240.823 70.5313 264.974 70.9098C309.949 71.6473 338.897 94.5101 355.262 113.56C373.098 134.322 381.847 157.257 382.569 164.922C383.147 171.071 378.423 172.228 377.883 172.341L375.864 172.386C361.765 170.128 343.547 169.45 336.839 179.039C325.185 195.697 347.95 236.522 357.671 253.955C360.169 258.435 361.973 261.67 362.804 263.685C365.988 271.404 370.148 276.602 373.49 280.777C376.464 284.492 379.041 287.714 379.99 291.54C380.479 292.333 386.696 300.796 421.754 293.561C430.966 291.656 436.51 293.335 438.233 298.544C441.56 308.608 423.214 320.195 413.049 324.915C404.001 329.117 389.572 331.774 377.066 331.774ZM362.239 318.12C363.601 319.231 369.384 321.034 380.748 320.503C391.036 320.02 401.866 317.767 408.336 314.763C415.863 311.268 421.171 307.375 424.272 304.475C424.189 304.492 424.105 304.509 424.02 304.526C401.023 309.273 384.733 308.622 375.599 302.594C375.029 302.218 374.508 301.834 374.033 301.447C373.267 301.714 372.474 301.936 371.661 302.164C366.489 303.618 361.6 304.989 362.239 318.12Z" fill="white"/>
<path d="M213.965 347.663C208.28 347.663 202.318 346.898 196.129 345.348C194.352 344.904 178.765 340.719 178.972 330.754C179.162 321.633 192.175 318.952 197.073 317.941C214.296 314.395 215.41 312.981 220.76 306.188C222.346 304.175 224.32 301.67 227.011 298.662C235.969 288.64 244.415 292.139 248.022 293.633C253.681 295.979 258.399 301.636 260.333 308.398C262.085 314.517 261.245 320.415 257.966 325.004C247.318 339.913 232.055 347.661 213.965 347.663ZM191.375 331.276C193 332.383 195.767 333.718 198.845 334.488C213.781 338.225 234.581 338.486 248.855 318.497C250.547 316.129 250.029 313.084 249.57 311.48C248.597 308.082 246.199 304.997 243.737 303.977C240.698 302.718 239.022 302.025 235.359 306.123C235.358 306.123 235.357 306.124 235.355 306.126C232.897 308.872 231.121 311.126 229.555 313.115C222.721 321.79 219.593 324.734 199.331 328.906C195.146 329.77 192.732 330.638 191.375 331.276Z" fill="white"/>
<path d="M230.38 307.753C227.664 307.753 225.279 305.771 224.854 303.004C224.74 302.26 224.66 301.512 224.611 300.761C211.453 300.409 198.784 294.718 189.144 284.659C176.842 271.825 171.244 254.045 173.784 235.88C176.518 216.333 175.494 199.073 174.945 189.8C174.792 187.21 174.681 185.339 174.689 184.034C174.701 182.328 174.731 177.796 189.483 170.318C194.675 167.686 205.084 163.095 216.464 161.917C235.437 159.946 247.964 168.417 251.714 185.756C261.724 232.05 252.501 252.541 245.767 267.503C244.52 270.273 243.342 272.89 242.403 275.416L241.569 277.656C238.042 287.111 234.995 295.277 235.92 301.306C236.389 304.361 234.292 307.219 231.236 307.687C230.948 307.732 230.663 307.753 230.38 307.753ZM185.927 185.665C185.97 186.601 186.041 187.785 186.121 189.138C186.693 198.8 187.76 216.782 184.872 237.431C182.81 252.178 187.313 266.569 197.227 276.913C205.024 285.047 215.277 289.55 225.815 289.581C227.026 284.609 228.979 279.374 231.08 273.741L231.909 271.518C232.978 268.637 234.232 265.853 235.559 262.907C241.994 248.608 250.003 230.814 240.772 188.122C238.988 179.876 234.699 175.082 227.657 173.469C212.231 169.935 190.595 181.527 185.927 185.665Z" fill="white"/>
<path d="M216.738 183.268C216.479 185.099 220.09 189.986 224.799 190.639C229.5 191.294 233.524 187.475 233.779 185.646C234.034 183.814 230.427 181.797 225.716 181.142C221.012 180.485 216.986 181.441 216.738 183.268Z" fill="white"/>
<path d="M225.819 192.575C225.396 192.575 224.969 192.547 224.542 192.487C221.584 192.077 218.596 190.214 216.552 187.504C215.83 186.546 214.654 184.69 214.89 183.011C214.977 182.377 215.302 181.458 216.35 180.664C218.217 179.251 221.905 178.726 225.974 179.295C228.475 179.643 230.8 180.364 232.52 181.325C235.543 183.014 235.765 184.919 235.627 185.904C235.232 188.737 230.75 192.575 225.819 192.575ZM218.614 183.622C218.9 184.873 221.575 188.307 225.055 188.791C228.564 189.273 231.466 186.503 231.892 185.494C231.486 184.899 229.329 183.528 225.458 182.989C221.643 182.458 219.206 183.161 218.614 183.622Z" fill="white"/>
<path d="M359.924 179.534C360.179 181.366 356.572 186.252 351.862 186.905C347.157 187.561 343.134 183.742 342.876 181.913C342.628 180.081 346.235 178.064 350.941 177.409C355.647 176.753 359.669 177.707 359.925 179.536L359.924 179.534Z" fill="white"/>
<path d="M350.806 187.911C346.171 187.911 342.258 184.21 341.952 182.043C341.572 179.256 346.122 177.137 350.811 176.484C355.504 175.829 360.459 176.625 360.847 179.406H360.847C361.021 180.657 360.072 182.58 358.429 184.305C357.352 185.437 355.081 187.401 351.989 187.83C351.592 187.885 351.195 187.911 350.806 187.911ZM353.857 178.13C353.019 178.13 352.087 178.19 351.07 178.332C346.156 179.017 343.69 180.973 343.801 181.787C343.977 183.04 347.521 186.559 351.733 185.982C354.265 185.63 356.17 183.975 357.079 183.019C358.5 181.526 359.065 180.135 359.001 179.663C358.91 179.02 357.066 178.13 353.857 178.13Z" fill="white"/>
<path d="M366.705 285.04C365.634 285.04 364.553 284.733 363.596 284.093C361.026 282.374 360.339 278.897 362.059 276.327C372.995 259.994 370.987 243.282 369.044 227.121C368.211 220.186 367.349 213.017 367.573 206.12C367.799 199.033 368.699 193.194 369.569 187.549C370.594 180.893 371.562 174.605 371.16 167.161C370.994 164.074 373.361 161.436 376.449 161.27C379.536 161.118 382.173 163.471 382.34 166.558C382.804 175.162 381.7 182.325 380.634 189.253C379.815 194.57 378.968 200.067 378.764 206.48C378.567 212.528 379.341 218.967 380.161 225.785C382.245 243.124 384.606 262.777 371.362 282.557C370.281 284.169 368.51 285.04 366.705 285.04Z" fill="white"/>
</svg>
