<svg width="512" height="512" viewBox="0 0 512 512" fill="none" xmlns="http://www.w3.org/2000/svg">
<rect width="512" height="512" fill="white"/>
<g clip-path="url(#clip0_286_440)">
<path d="M388.683 133.024C388.406 131.005 386.637 129.888 385.179 129.766C383.72 129.644 355.247 129.211 355.247 129.211C355.247 129.211 331.434 106.084 329.081 103.73C326.729 101.376 322.134 102.09 320.35 102.615C320.323 102.623 315.881 103.998 308.384 106.32C307.133 102.256 305.287 97.2641 302.658 92.2485C294.178 76.0735 281.765 67.5118 266.761 67.4899C266.744 67.4899 266.728 67.4899 266.71 67.4899C265.67 67.4899 264.634 67.5876 263.596 67.6821C263.155 67.1508 262.709 66.6243 262.24 66.1219C255.708 59.1305 247.32 55.7243 237.28 56.0188C217.898 56.5743 198.607 70.5688 182.959 95.4219C171.945 112.914 163.577 134.888 161.197 151.895C138.948 158.785 123.382 163.606 123.045 163.712C111.815 167.236 111.462 167.589 109.989 178.17C108.874 186.18 79.4922 413.413 79.4922 413.413L325.769 456L432.506 429.47C432.506 429.47 388.959 135.044 388.683 133.024ZM174.994 147.622C181.653 116.484 207.744 69.7712 237.652 68.911C242.202 68.8157 246.034 69.8141 249.307 71.968C244.073 74.686 239.009 78.5922 234.26 83.686C221.951 96.8907 212.522 117.394 208.762 137.165C197.027 140.798 185.552 144.352 174.994 147.622ZM264.052 120.045C251.15 124.04 237.065 128.402 222.935 132.777C226.913 117.559 234.443 102.409 243.696 92.4829C247.138 88.7907 251.954 84.6704 257.655 82.318C263.02 93.4954 264.181 109.341 264.052 120.045ZM276.934 116.056C276.791 106.243 275.62 92.5938 271.048 80.7946C285.752 83.5805 292.992 100.218 296.048 110.138C290.381 111.892 283.927 113.891 276.934 116.056Z" fill="#95BF47"/>
<path d="M385.179 129.766C383.72 129.644 355.247 129.211 355.247 129.211C355.247 129.211 331.433 106.084 329.081 103.73C328.204 102.852 327.014 102.402 325.775 102.209L325.781 455.998L432.506 429.47C432.506 429.47 388.959 135.044 388.683 133.024C388.406 131.005 386.637 129.888 385.179 129.766Z" fill="#5E8E3E"/>
<path d="M266.619 184.647L254.221 231.023C254.221 231.023 240.393 224.726 223.998 225.761C199.96 227.279 199.705 242.442 199.944 246.242C201.254 266.984 255.818 271.516 258.885 320.095C261.298 358.316 238.612 384.459 205.924 386.523C166.698 389 145.099 365.854 145.099 365.854L153.411 330.491C153.411 330.491 175.148 346.891 192.548 345.792C203.913 345.074 207.974 335.831 207.562 329.293C205.853 302.237 161.422 303.831 158.615 259.375C156.252 221.959 180.821 184.056 235.033 180.632C255.922 179.314 266.619 184.647 266.619 184.647Z" fill="white"/>
</g>
<defs>
<clipPath id="clip0_286_440">
<rect width="400" height="400" fill="white" transform="translate(56 56)"/>
</clipPath>
</defs>
</svg>
