<?xml version="1.0" encoding="utf-8"?>
<!-- Generator: Adobe Illustrator 24.1.2, SVG Export Plug-In . SVG Version: 6.00 Build 0)  -->
<svg version="1.1" id="Layer_1" xmlns="http://www.w3.org/2000/svg" xmlns:xlink="http://www.w3.org/1999/xlink" x="0px" y="0px"
	 viewBox="0 0 512 512" style="enable-background:new 0 0 512 512;" xml:space="preserve">
<style type="text/css">
	.st0{fill:#0AC1A7;}
	.st1{fill:#6AE5D3;}
	.st2{fill:#FFFFFF;}
	.st3{fill:#51DBCA;}
</style>
<path class="st0" d="M150.8,184.2l-56.9-56.9c-6.2-6.2-6.2-16.4,0-22.6c6.3-6.2,16.4-6.2,22.6,0l56.9,56.9L150.8,184.2z"/>
<path class="st0" d="M361.2,184.2l-22.6-22.6l56.9-56.9c6.2-6.2,16.4-6.2,22.6,0c6.2,6.3,6.2,16.4,0,22.6L361.2,184.2z"/>
<path class="st1" d="M432,332.9H80v-32c0-97.2,78.8-176,176-176s176,78.8,176,176V332.9z"/>
<path class="st2" d="M176,236.9h32v32h-32V236.9z"/>
<path class="st2" d="M304,236.9h32v32h-32V236.9z"/>
<g>
	<path class="st3" d="M480,380.9h32v32h-32V380.9z"/>
	<path class="st3" d="M80,380.9h352c8.8,0,16,7.2,16,16c0,8.8-7.2,16-16,16H80c-8.8,0-16-7.2-16-16C64,388.1,71.2,380.9,80,380.9z"
		/>
	<path class="st3" d="M0,380.9h32v32H0V380.9z"/>
	<path class="st3" d="M16,300.9h480c8.8,0,16,7.2,16,16c0,8.8-7.2,16-16,16H16c-8.8,0-16-7.2-16-16C0,308.1,7.2,300.9,16,300.9z"/>
</g>
</svg>
