<?xml version="1.0" encoding="utf-8"?>
<!-- Generator: Adobe Illustrator 24.1.2, SVG Export Plug-In . SVG Version: 6.00 Build 0)  -->
<svg version="1.1" id="Layer_1" xmlns="http://www.w3.org/2000/svg" xmlns:xlink="http://www.w3.org/1999/xlink" x="0px" y="0px"
	 viewBox="0 0 100 100" style="enable-background:new 0 0 100 100;" xml:space="preserve">
<style type="text/css">
	.st0{fill:#B2B2B2;}
	.st1{fill:#E42939;}
	.st2{fill:#B72833;}
	.st3{fill:#FFFFFF;}
</style>
<g id="Layer_1_1_">
	<path class="st0" d="M50,0l50,14l-8,66l-42,20L8,80L0,14L50,0z"/>
	<path class="st1" d="M50,5L6,18l7.5,59L50,94V5z"/>
	<path class="st2" d="M50,5l44,13l-7.5,59L50,94V5z"/>
	<path class="st0" d="M50,7l33,68H72l-7-16H50v-9h11L50,26V7z"/>
	<path class="st3" d="M50,7L17,75h11l7-16h15v-9H39l11-24V7z"/>
</g>
</svg>
