<?xml version="1.0" encoding="utf-8"?>
<!-- Generator: Adobe Illustrator 24.1.2, SVG Export Plug-In . SVG Version: 6.00 Build 0)  -->
<svg version="1.1" id="Layer_1" xmlns="http://www.w3.org/2000/svg" xmlns:xlink="http://www.w3.org/1999/xlink" x="0px" y="0px"
	 viewBox="0 0 64 64" style="enable-background:new 0 0 64 64;" xml:space="preserve">
<style type="text/css">
	.st0{clip-path:url(#SVGID_2_);}
	.st1{fill:#39CEFD;}
	.st2{clip-path:url(#SVGID_4_);fill:#39CEFD;}
	.st3{clip-path:url(#SVGID_6_);fill:#03569B;}
	.st4{clip-path:url(#SVGID_8_);fill:url(#SVGID_9_);}
	.st5{clip-path:url(#SVGID_11_);}
	.st6{fill:#16B9FD;}
	.st7{fill:url(#SVGID_12_);}
</style>
<g transform="matrix(.061615 0 0 .061615 -1.430818 -1.2754)">
	<g>
		<defs>
			<path id="SVGID_1_" d="M959.4,500L679.8,779.7l279.6,279.7H639.9L360.2,779.7L639.9,500H959.4z M639.9,20.7L120.6,540
				l159.8,159.8l679-679.1H639.9z"/>
		</defs>
		<clipPath id="SVGID_2_">
			<use xlink:href="#SVGID_1_"  style="overflow:visible;"/>
		</clipPath>
		<g class="st0">
			<path class="st1" d="M360.3,779.7L520,939.5L959.4,500H639.9L360.3,779.7z"/>
		</g>
	</g>
	<g>
		<defs>
			<path id="SVGID_3_" d="M959.4,500L679.8,779.7l279.6,279.7H639.9L360.2,779.7L639.9,500H959.4z M639.9,20.7L120.6,540
				l159.8,159.8l679-679.1H639.9z"/>
		</defs>
		<clipPath id="SVGID_4_">
			<use xlink:href="#SVGID_3_"  style="overflow:visible;"/>
		</clipPath>
		<path class="st2" d="M639.9,20.7h319.5l-679,679.1L120.6,540L639.9,20.7z"/>
	</g>
	<g>
		<defs>
			<path id="SVGID_5_" d="M959.4,500L679.8,779.7l279.6,279.7H639.9L360.2,779.7L639.9,500H959.4z M639.9,20.7L120.6,540
				l159.8,159.8l679-679.1H639.9z"/>
		</defs>
		<clipPath id="SVGID_6_">
			<use xlink:href="#SVGID_5_"  style="overflow:visible;"/>
		</clipPath>
		<path class="st3" d="M520,939.5l119.9,119.8h319.5L679.8,779.7L520,939.5z"/>
	</g>
	<g>
		<defs>
			<path id="SVGID_7_" d="M959.4,500L679.8,779.7l279.6,279.7H639.9L360.2,779.7L639.9,500H959.4z M639.9,20.7L120.6,540
				l159.8,159.8l679-679.1H639.9z"/>
		</defs>
		<clipPath id="SVGID_8_">
			<use xlink:href="#SVGID_7_"  style="overflow:visible;"/>
		</clipPath>
		
			<linearGradient id="SVGID_9_" gradientUnits="userSpaceOnUse" x1="186445.3438" y1="-191882.2969" x2="186564.3594" y2="-191763.2813" gradientTransform="matrix(6.161500e-02 0 0 -6.161500e-02 -10921.208 -10852.501)">
			<stop  offset="0" style="stop-color:#1A237E;stop-opacity:0.4"/>
			<stop  offset="1" style="stop-color:#1A237E;stop-opacity:0"/>
		</linearGradient>
		<path class="st4" d="M757,857.4l-77.2-77.7L520,939.5L757,857.4z"/>
	</g>
	<g>
		<defs>
			<path id="SVGID_10_" d="M959.4,500L679.8,779.7l279.6,279.7H639.9L360.2,779.7L639.9,500H959.4z M639.9,20.7L120.6,540
				l159.8,159.8l679-679.1H639.9z"/>
		</defs>
		<clipPath id="SVGID_11_">
			<use xlink:href="#SVGID_10_"  style="overflow:visible;"/>
		</clipPath>
		<g class="st5">
			<path class="st6" d="M360.3,779.6l159.8-159.8l159.8,159.8L520.1,939.5L360.3,779.6z"/>
		</g>
	</g>
	
		<radialGradient id="SVGID_12_" cx="870830.0625" cy="814531.5625" r="5082.8892" gradientTransform="matrix(1.540375e-02 0 0 1.540375e-02 -13269.8848 -12455.3457)" gradientUnits="userSpaceOnUse">
		<stop  offset="0" style="stop-color:#FFFFFF;stop-opacity:0.1"/>
		<stop  offset="1" style="stop-color:#FFFFFF;stop-opacity:0"/>
	</radialGradient>
	<path class="st7" d="M959.4,500L679.8,779.7l279.6,279.7H639.9L360.2,779.7L639.9,500H959.4z M639.9,20.7L120.6,540l159.8,159.8
		l679-679.1H639.9z"/>
</g>
</svg>
