<?xml version="1.0" encoding="utf-8"?>
<!-- Generator: Adobe Illustrator 24.1.2, SVG Export Plug-In . SVG Version: 6.00 Build 0)  -->
<svg version="1.1" id="Layer_1" xmlns="http://www.w3.org/2000/svg" xmlns:xlink="http://www.w3.org/1999/xlink" x="0px" y="0px"
	 viewBox="0 0 490 490" style="enable-background:new 0 0 490 490;" xml:space="preserve">
<style type="text/css">
	.st0{fill:#4DB6AC;}
</style>
<g>
	<path class="st0" d="M372.8,191.7c0,17.8-48.6,42.6-127.8,42.6s-127.8-24.8-127.8-42.6v-29.9C145,181.4,196,191.7,245,191.7
		s100-10.3,127.8-29.9V191.7z"/>
	<path class="st0" d="M372.8,127.8c0,17.8-48.6,42.6-127.8,42.6s-127.8-24.8-127.8-42.6V98C145,117.5,196,127.8,245,127.8
		S345,117.5,372.8,98V127.8z"/>
	<path class="st0" d="M372.8,63.9c0-23.5-57.2-42.6-127.8-42.6S117.2,40.4,117.2,63.9s57.2,42.6,127.8,42.6S372.8,87.4,372.8,63.9z"
		/>
	<path class="st0" d="M245,298.3c-75.3,0-127.8-22.5-127.8-42.6v-29.9C145,245.3,196,255.7,245,255.7s100-10.3,127.8-29.9v29.9
		C372.8,275.8,320.3,298.3,245,298.3z"/>
</g>
<path d="M245,127.8c-72.3,0-149.1-22.4-149.1-63.9S172.7,0,245,0s149.1,22.4,149.1,63.9S317.3,127.8,245,127.8z M245,21.3
	c-79.2,0-127.8,24.8-127.8,42.6s48.6,42.6,127.8,42.6s127.8-24.8,127.8-42.6S324.2,21.3,245,21.3z"/>
<path d="M245,191.7c-72.3,0-149.1-22.4-149.1-63.9c0-5.9,4.8-10.7,10.6-10.7c5.9,0,10.7,4.8,10.7,10.7c0,17.8,48.6,42.6,127.8,42.6
	s127.8-24.8,127.8-42.6c0-5.9,4.8-10.7,10.7-10.7c5.9,0,10.6,4.8,10.6,10.7C394.1,169.3,317.3,191.7,245,191.7z"/>
<path d="M245,255.7c-72.3,0-149.1-22.4-149.1-63.9c0-5.9,4.8-10.7,10.6-10.7c5.9,0,10.7,4.8,10.7,10.7c0,17.8,48.6,42.6,127.8,42.6
	s127.8-24.8,127.8-42.6c0-5.9,4.8-10.7,10.7-10.7c5.9,0,10.6,4.8,10.6,10.7C394.1,233.2,317.3,255.7,245,255.7z"/>
<path d="M245,319.6c-74.1,0-149.1-21.9-149.1-63.9V63.9c0-5.9,4.8-10.7,10.6-10.7c5.9,0,10.7,4.8,10.7,10.7v191.7
	c0,20.2,52.5,42.6,127.8,42.6s127.8-22.5,127.8-42.6V63.9c0-5.9,4.8-10.7,10.7-10.7c5.9,0,10.6,4.8,10.6,10.7v191.7
	C394.1,297.6,319.1,319.6,245,319.6z"/>
<path d="M245,447.4c-22.6,0-40.9-12.7-42.5-29.6c-0.6-5.9,3.7-11.1,9.6-11.6c6-0.4,11.1,3.8,11.6,9.6c0.4,4.3,8.7,10.3,21.3,10.3
	c12.8,0,21.3-6.4,21.3-10.6c0-4.6-13.5-9.6-22.6-10.7c-4.2-0.5-41.3-5.8-41.3-31.9c0-17.9,18.7-32,42.6-32
	c22.6,0,40.9,12.7,42.5,29.6c0.6,5.9-3.7,11.1-9.6,11.6c-5.9,0.3-11.1-3.8-11.6-9.6c-0.4-4.3-8.7-10.3-21.3-10.3
	c-12.8,0-21.3,6.4-21.3,10.6c0,4.6,13.5,9.6,22.6,10.7c4.2,0.5,41.3,5.9,41.3,31.9C287.6,433.4,268.9,447.4,245,447.4z"/>
<path d="M362.2,447.4h-21.3c-17.6,0-32-14.3-32-32v-42.6c0-17.6,14.3-32,32-32h21.3c17.6,0,32,14.3,32,32v42.6
	C394.1,433.1,379.8,447.4,362.2,447.4z M340.9,362.2c-5.9,0-10.7,4.8-10.7,10.6v42.6c0,5.9,4.8,10.7,10.7,10.7h21.3
	c5.9,0,10.7-4.8,10.7-10.7v-42.6c0-5.9-4.8-10.6-10.7-10.6H340.9z"/>
<path d="M468.7,447.4h-42.6c-5.9,0-10.6-4.8-10.6-10.7v-85.2c0-5.9,4.8-10.7,10.6-10.7c5.9,0,10.7,4.8,10.7,10.7v74.6h32
	c5.9,0,10.7,4.8,10.7,10.6C479.3,442.6,474.6,447.4,468.7,447.4z"/>
<path d="M383.5,447.4c-2.7,0-5.5-1-7.5-3.1L354.6,423c-4.2-4.2-4.2-10.9,0-15.1c4.2-4.2,10.9-4.2,15.1,0l21.3,21.3
	c4.2,4.2,4.2,10.9,0,15.1C388.9,446.3,386.2,447.4,383.5,447.4z"/>
<path d="M127.8,490c-1.6,0-3.2-0.4-4.8-1.1c-5.3-2.6-7.4-9-4.8-14.3l42.6-85.2c2.6-5.3,9-7.4,14.3-4.8c5.3,2.6,7.4,9,4.8,14.3
	l-42.6,85.2C135.5,487.8,131.7,490,127.8,490z"/>
<path d="M149.1,447.4c-3.9,0-7.7-2.2-9.5-5.9l-21.3-42.6c-2.6-5.3-0.5-11.7,4.8-14.3c5.3-2.6,11.6-0.5,14.3,4.8l21.3,42.6
	c2.6,5.3,0.5,11.7-4.8,14.3C152.4,447,150.7,447.4,149.1,447.4z"/>
<path d="M85.2,447.4c-5.9,0-10.7-4.8-10.7-10.7v-53.3l-12.8,17c-4,5.4-13,5.4-17,0l-12.8-17v53.3c0,5.9-4.8,10.7-10.7,10.7
	s-10.7-4.8-10.7-10.7v-85.2c0-4.6,2.9-8.6,7.3-10.1c4.4-1.4,9.1,0,11.9,3.7l23.4,31.3l23.4-31.3c2.8-3.7,7.5-5.1,11.9-3.7
	c4.3,1.5,7.3,5.5,7.3,10.1v85.2C95.9,442.6,91.1,447.4,85.2,447.4z"/>
</svg>
