<?xml version="1.0" encoding="utf-8"?>
<!-- Generator: Adobe Illustrator 24.1.2, SVG Export Plug-In . SVG Version: 6.00 Build 0)  -->
<svg version="1.1" id="Layer_1" xmlns="http://www.w3.org/2000/svg" xmlns:xlink="http://www.w3.org/1999/xlink" x="0px" y="0px"
	 viewBox="0 0 512 512" style="enable-background:new 0 0 512 512;" xml:space="preserve">
<style type="text/css">
	.st0{fill:#689F63;}
	.st1{fill-rule:evenodd;clip-rule:evenodd;fill:#333333;}
	.st2{fill-rule:evenodd;clip-rule:evenodd;fill:#689F63;}
	.st3{clip-path:url(#SVGID_2_);}
	.st4{fill:url(#SVGID_3_);}
	.st5{clip-path:url(#SVGID_5_);}
	.st6{fill:url(#SVGID_6_);}
	.st7{clip-path:url(#SVGID_8_);}
	.st8{fill:url(#SVGID_9_);}
</style>
<path class="st0" d="M253.1,412.8c-1.7,0-3.4-0.4-4.8-1.3l-15.4-9.1c-2.3-1.3-1.2-1.7-0.4-2c3.1-1.1,3.7-1.3,7-3.2
	c0.3-0.2,0.8-0.1,1.1,0.1l11.9,7c0.4,0.2,1,0.2,1.4,0l46.2-26.7c0.4-0.2,0.7-0.7,0.7-1.3V323c0-0.5-0.3-1-0.7-1.3L253.8,295
	c-0.4-0.3-1-0.3-1.4,0l-46.2,26.7c-0.4,0.3-0.7,0.8-0.7,1.3v53.4c0,0.5,0.3,1,0.7,1.2l12.7,7.3c6.9,3.4,11.1-0.6,11.1-4.7v-52.7
	c0-0.8,0.6-1.3,1.3-1.3h5.9c0.7,0,1.3,0.6,1.3,1.3v52.7c0,9.2-5,14.4-13.7,14.4c-2.7,0-4.8,0-10.7-2.9l-12.1-7c-3-1.7-4.8-5-4.8-8.4
	V323c0-3.5,1.9-6.7,4.8-8.4l46.3-26.7c2.9-1.7,6.8-1.7,9.7,0l46.2,26.7c3,1.7,4.8,5,4.8,8.4v53.4c0,3.5-1.9,6.7-4.8,8.4l-46.2,26.7
	C256.4,412.3,254.8,412.8,253.1,412.8"/>
<path class="st0" d="M267.3,376c-20.2,0-24.5-9.3-24.5-17.1c0-0.7,0.6-1.3,1.3-1.3h6c0.7,0,1.2,0.5,1.3,1.1
	c0.9,6.1,3.6,9.2,15.8,9.2c9.7,0,13.9-2.2,13.9-7.4c0-3-1.2-5.2-16.3-6.7c-12.7-1.3-20.5-4-20.5-14.2c0-9.3,7.9-14.9,21.1-14.9
	c14.8,0,22.1,5.1,23.1,16.2c0,0.4-0.1,0.8-0.4,1c-0.3,0.3-0.6,0.4-1,0.4h-6c-0.6,0-1.2-0.4-1.3-1c-1.4-6.4-4.9-8.4-14.4-8.4
	c-10.6,0-11.9,3.7-11.9,6.5c0,3.4,1.5,4.4,15.8,6.2c14.2,1.9,21,4.5,21,14.5C290.3,370.3,281.9,376.1,267.3,376 M323.6,319.5h1.6
	c1.3,0,1.5-0.9,1.5-1.4c0-1.4-0.9-1.4-1.5-1.4h-1.6L323.6,319.5z M321.7,315.1h3.4c1.2,0,3.5,0,3.5,2.6c0,1.8-1.2,2.2-1.9,2.5
	c1.4,0.1,1.5,1,1.7,2.3c0.1,0.8,0.2,2.2,0.5,2.6h-2.1c-0.1-0.5-0.4-3-0.4-3.1c-0.1-0.6-0.3-0.8-1-0.8h-1.7v4h-1.9V315.1z
	 M317.6,320.1c0,4.1,3.3,7.5,7.5,7.5c4.1,0,7.5-3.4,7.5-7.5c0-4.2-3.4-7.5-7.5-7.5C321,312.6,317.6,315.9,317.6,320.1 M334,320.1
	c0,4.9-4,8.9-8.9,8.9c-4.9,0-8.9-4-8.9-8.9c0-5,4.1-8.9,8.9-8.9C329.8,311.2,333.9,315.1,334,320.1"/>
<path class="st1" d="M109.9,204c0-2.1-1.1-4.1-3-5.1l-49-28.2c-0.8-0.5-1.8-0.7-2.7-0.8h-0.5c-0.9,0-1.9,0.3-2.7,0.8L3,198.9
	c-1.8,1.1-3,3-3,5.2l0.1,76c0,1.1,0.5,2,1.5,2.6c0.9,0.6,2,0.6,2.9,0l29.1-16.7c1.8-1.1,3-3,3-5.1v-35.5c0-2.1,1.1-4.1,3-5.1L52,213
	c0.9-0.5,1.9-0.8,3-0.8c1,0,2,0.3,2.9,0.8l12.4,7.1c1.8,1.1,3,3,3,5.1v35.5c0,2.1,1.1,4.1,3,5.1l29.1,16.7c0.9,0.5,2.1,0.5,3,0
	c0.9-0.5,1.5-1.5,1.5-2.6L109.9,204z M341.2,243.6c0,0.5-0.3,1-0.7,1.3l-16.8,9.7c-0.5,0.3-1,0.3-1.5,0l-16.8-9.7
	c-0.5-0.3-0.7-0.8-0.7-1.3v-19.4c0-0.5,0.3-1,0.7-1.3l16.8-9.7c0.5-0.3,1-0.3,1.5,0l16.8,9.7c0.5,0.3,0.7,0.8,0.7,1.3L341.2,243.6z
	 M345.8,99.6c-0.9-0.5-2-0.5-2.9,0c-0.9,0.5-1.5,1.5-1.5,2.6v75.2c0,0.7-0.4,1.4-1,1.8c-0.6,0.4-1.4,0.4-2.1,0l-12.3-7.1
	c-1.8-1.1-4.1-1.1-5.9,0l-49,28.3c-1.8,1.1-3,3-3,5.1v56.6c0,2.1,1.1,4.1,3,5.1l49,28.3c1.8,1.1,4.1,1.1,5.9,0l49-28.3
	c1.8-1.1,3-3,3-5.1V121c0-2.1-1.2-4.1-3-5.2L345.8,99.6z M509.1,223.6c1.8-1.1,2.9-3,2.9-5.1v-13.7c0-2.1-1.1-4.1-2.9-5.1
	l-48.7-28.3c-1.8-1.1-4.1-1.1-5.9,0l-49,28.3c-1.8,1.1-3,3-3,5.1v56.6c0,2.1,1.1,4.1,3,5.2l48.7,27.8c1.8,1,4,1,5.8,0l29.5-16.4
	c0.9-0.5,1.5-1.5,1.5-2.6s-0.6-2.1-1.5-2.6l-49.3-28.3c-0.9-0.5-1.5-1.5-1.5-2.6v-17.8c0-1.1,0.6-2,1.5-2.6l15.3-8.9
	c0.9-0.5,2-0.5,3,0l15.4,8.9c0.9,0.5,1.5,1.5,1.5,2.6v14c0,1.1,0.6,2,1.5,2.6c0.9,0.5,2,0.5,3,0L509.1,223.6z"/>
<path class="st2" d="M456.6,221c0.3-0.2,0.8-0.2,1.1,0l9.4,5.4c0.4,0.2,0.6,0.6,0.6,1v10.9c0,0.4-0.2,0.8-0.6,1l-9.4,5.4
	c-0.4,0.2-0.8,0.2-1.1,0l-9.4-5.4c-0.4-0.2-0.6-0.6-0.6-1v-10.9c0-0.4,0.2-0.8,0.6-1L456.6,221z"/>
<g>
	<defs>
		<path id="SVGID_1_" d="M186,171.7l-48.8,28.1c-1.8,1.1-2.9,3-2.9,5.1v56.3c0,2.1,1.1,4,2.9,5.1l48.8,28.2c1.8,1,4.1,1,5.9,0
			l48.8-28.2c1.8-1.1,2.9-3,2.9-5.1v-56.3c0-2.1-1.1-4-3-5.1l-48.7-28.1c-0.9-0.5-1.9-0.8-3-0.8S186.9,171.1,186,171.7"/>
	</defs>
	<clipPath id="SVGID_2_">
		<use xlink:href="#SVGID_1_"  style="overflow:visible;"/>
	</clipPath>
	<g transform="translate(-78.306 -164.016)" class="st3">
		
			<linearGradient id="SVGID_3_" gradientUnits="userSpaceOnUse" x1="-412.7866" y1="1177.6075" x2="-411.1874" y2="1177.6075" gradientTransform="matrix(-44.0564 89.8747 89.8747 44.0564 -123720.5703 -14456.7188)">
			<stop  offset="0.3" style="stop-color:#3E863D"/>
			<stop  offset="0.5" style="stop-color:#55934F"/>
			<stop  offset="0.8" style="stop-color:#5AAD45"/>
		</linearGradient>
		<path class="st4" d="M371.2,359l-137.4-67.3l-70.5,143.7l137.4,67.4L371.2,359z"/>
	</g>
</g>
<g>
	<defs>
		<path id="SVGID_4_" d="M135.5,264.8c0.5,0.6,1,1.1,1.7,1.5l41.8,24.2l7,4c1,0.6,2.2,0.9,3.4,0.8c0.4,0,0.8-0.1,1.2-0.2l51.4-94.2
			c-0.4-0.4-0.9-0.8-1.4-1.1l-31.9-18.4l-16.9-9.7c-0.5-0.3-1-0.5-1.5-0.6L135.5,264.8z"/>
	</defs>
	<clipPath id="SVGID_5_">
		<use xlink:href="#SVGID_4_"  style="overflow:visible;"/>
	</clipPath>
	<g transform="translate(-78.306 -164.016)" class="st5">
		
			<linearGradient id="SVGID_6_" gradientUnits="userSpaceOnUse" x1="-414.4765" y1="1166.5364" x2="-413.4386" y2="1166.5364" gradientTransform="matrix(123.6172 -91.3384 -91.3384 -123.6172 157988.8906 106790.9063)">
			<stop  offset="0.57" style="stop-color:#3E863D"/>
			<stop  offset="0.72" style="stop-color:#619857"/>
			<stop  offset="1" style="stop-color:#76AC64"/>
		</linearGradient>
		<path class="st6" d="M154.4,379l97,131.3l128.3-94.8l-97-131.3L154.4,379z"/>
	</g>
</g>
<g>
	<defs>
		<path id="SVGID_7_" d="M188.4,170.9c-0.8,0.1-1.6,0.3-2.4,0.8l-48.6,28.1l52.4,95.5c0.7-0.1,1.4-0.3,2.1-0.7l48.8-28.2
			c1.5-0.9,2.5-2.3,2.8-4L190.1,171c-0.4-0.1-0.8-0.1-1.2-0.1C188.7,170.9,188.6,170.9,188.4,170.9"/>
	</defs>
	<clipPath id="SVGID_8_">
		<use xlink:href="#SVGID_7_"  style="overflow:visible;"/>
	</clipPath>
	<g transform="translate(-78.306 -164.016)" class="st7">
		
			<linearGradient id="SVGID_9_" gradientUnits="userSpaceOnUse" x1="-410.2788" y1="1166.6436" x2="-409.3377" y2="1166.6436" gradientTransform="matrix(112.7506 0 0 -112.7506 46474.9102 131936.875)">
			<stop  offset="0.16" style="stop-color:#6BBF47"/>
			<stop  offset="0.38" style="stop-color:#79B461"/>
			<stop  offset="0.47" style="stop-color:#75AC64"/>
			<stop  offset="0.7" style="stop-color:#659E5A"/>
			<stop  offset="0.9" style="stop-color:#3E863D"/>
		</linearGradient>
		<path class="st8" d="M215.7,334.9v124.3h106.1V334.9L215.7,334.9z"/>
	</g>
</g>
</svg>
