<?xml version="1.0" encoding="utf-8"?>
<!-- Generator: Adobe Illustrator 24.1.2, SVG Export Plug-In . SVG Version: 6.00 Build 0)  -->
<svg version="1.1" id="Layer_1" xmlns="http://www.w3.org/2000/svg" xmlns:xlink="http://www.w3.org/1999/xlink" x="0px" y="0px"
	 viewBox="0 0 445 445" style="enable-background:new 0 0 445 445;" xml:space="preserve">
<style type="text/css">
	.st0{fill:url(#SVGID_1_);}
	.st1{fill:url(#SVGID_2_);}
</style>
<linearGradient id="SVGID_1_" gradientUnits="userSpaceOnUse" x1="281.7739" y1="1002.7106" x2="281.7739" y2="1487.5195" gradientTransform="matrix(0.9987 0 0 0.9987 -58.8842 -1018.5372)">
	<stop  offset="0" style="stop-color:#00EFD1"/>
	<stop  offset="1" style="stop-color:#00ACEA"/>
</linearGradient>
<path class="st0" d="M409.8,102.7c-16.6-26-52.2-36.8-100.3-30.6c-1.7,0.2-3.5,0.5-5.2,0.7c-0.7-1.6-1.4-3.2-2.2-4.8
	c-20.7-43.8-48.9-68-79.7-68s-59.1,24.2-79.7,68c-0.7,1.6-1.5,3.2-2.2,4.8c-1.8-0.3-3.5-0.5-5.2-0.7c-48.1-6.3-83.7,4.6-100.3,30.6
	c-16.6,26-11.5,62.8,14.3,103.8c3.4,5.4,7.1,10.8,11.1,16.1c-4,5.4-7.7,10.7-11.1,16.1c-25.8,40.9-30.9,77.9-14.3,103.8
	c13.5,21.2,39.6,32.3,74.9,32.3c8.4,0,16.9-0.6,25.3-1.7c1.7-0.2,3.5-0.5,5.2-0.7c0.7,1.6,1.4,3.2,2.2,4.8
	c20.7,43.8,48.9,68,79.7,68c30.8,0,59.1-24.2,79.7-68c0.7-1.6,1.5-3.2,2.2-4.8c1.8,0.3,3.5,0.5,5.2,0.7c8.4,1.1,16.8,1.7,25.3,1.7
	c35.3,0,61.4-11.1,74.9-32.3c16.6-26,11.5-62.8-14.3-103.8c-3.4-5.4-7.1-10.8-11.1-16.1c4-5.4,7.7-10.7,11.1-16.1
	C421.4,165.4,426.5,128.5,409.8,102.7z M160.9,76.5c16.9-36,39.3-56.5,61.6-56.5s44.7,20.6,61.6,56.5c0,0.1,0,0.1,0.1,0.2
	c-21.2,5.1-41.9,12.2-61.8,21.1c-19.9-9-40.6-16-61.8-21.1C160.8,76.7,160.8,76.6,160.9,76.5z M312.5,222.5c0,16-0.9,31.9-2.6,47.8
	c-12.4,10-25.5,19.4-38.9,28c-15.6,10-31.8,19-48.5,26.9c-16.7-8-32.9-16.9-48.5-26.9c-13.5-8.6-26.5-17.9-38.9-28
	c-3.5-31.8-3.5-63.9,0-95.7c26.9-21.6,56.3-40,87.5-54.8c16.7,7.9,32.9,16.9,48.5,26.9c13.5,8.6,26.5,17.9,38.9,28
	C311.6,190.6,312.5,206.5,312.5,222.5z M331.5,193.4c9.8,9.1,19,18.8,27.6,29.1c-8.6,10.2-17.8,19.9-27.6,29.1
	c0.6-9.6,0.9-19.3,0.9-29.1S332.1,203,331.5,193.4z M305.8,298.7c-3.2,17.3-7.7,34.3-13.7,50.8c-15.5-3.5-30.7-8.2-45.5-14
	c11.8-6.2,23.6-13,35.2-20.4C290,309.9,298,304.4,305.8,298.7z M198.4,335.5c-14.8,5.9-30,10.6-45.5,14c-6-16.5-10.5-33.5-13.7-50.8
	c7.7,5.7,15.7,11.2,24,16.4C174.8,322.6,186.6,329.4,198.4,335.5z M113.4,251.6c-9.8-9.1-19-18.8-27.6-29.1
	c8.6-10.2,17.8-20,27.6-29.1c-0.6,9.6-0.9,19.3-0.9,29.1S112.8,242,113.4,251.6z M139.2,146.3c3.2-17.3,7.7-34.3,13.7-50.8
	c15.5,3.5,30.7,8.2,45.5,14c-11.8,6.2-23.6,13-35.2,20.4C155,135.1,147,140.6,139.2,146.3z M281.7,129.8
	c-11.6-7.4-23.4-14.3-35.3-20.4c14.8-5.9,30-10.6,45.5-14c5.9,16.5,10.5,33.5,13.7,50.8C298,140.6,290,135.1,281.7,129.8z
	 M66.3,195.7c-21.2-33.6-26.4-63.6-14.4-82.4c9.6-15,30.4-23.1,58.4-23.1c7.5,0,15,0.5,22.5,1.5h0.2c-8.1,23.5-13.7,47.8-16.8,72.4
	c-15.4,12.8-29.7,26.9-42.8,42C70.9,202.8,68.5,199.3,66.3,195.7z M132.7,353.1c-7.5,1-15,1.5-22.5,1.5c-28.1,0-48.8-8-58.4-23.1
	c-12-18.8-6.8-48.8,14.4-82.4c2.2-3.5,4.6-7.1,7.1-10.6c13.1,15.1,27.5,29.2,42.8,42c3.1,24.7,8.7,48.9,16.8,72.4
	C132.9,353.1,132.8,353.1,132.7,353.1z M284.1,368.5c-16.9,36-39.3,56.5-61.6,56.5s-44.7-20.6-61.6-56.5c0-0.1,0-0.1-0.1-0.2
	c21.2-5.1,41.9-12.2,61.8-21.1c19.9,9,40.6,16,61.8,21.1C284.2,368.3,284.2,368.4,284.1,368.5z M378.7,249.3
	c21.2,33.6,26.4,63.6,14.4,82.4c-12,18.8-41.4,26.7-80.8,21.5h-0.2c8.1-23.5,13.7-47.8,16.8-72.4c15.4-12.8,29.7-26.9,42.8-42
	C374.1,242.2,376.5,245.7,378.7,249.3z M328.7,164.3c-3.1-24.7-8.7-48.9-16.8-72.4h0.2c39.3-5.1,68.8,2.7,80.8,21.5
	c12,18.8,6.8,48.8-14.4,82.4c-2.2,3.5-4.6,7.1-7.1,10.6C358.4,191.2,344.1,177.1,328.7,164.3z"/>
<linearGradient id="SVGID_2_" gradientUnits="userSpaceOnUse" x1="281.7441" y1="1002.7106" x2="281.7441" y2="1487.5195" gradientTransform="matrix(0.9987 0 0 0.9987 -58.8842 -1018.5372)">
	<stop  offset="0" style="stop-color:#00EFD1"/>
	<stop  offset="1" style="stop-color:#00ACEA"/>
</linearGradient>
<path class="st1" d="M222.5,183c-21.8,0-39.5,17.7-39.5,39.5s17.7,39.5,39.5,39.5s39.5-17.7,39.5-39.5
	C262,200.7,244.3,183,222.5,183z M222.5,242.1c-10.8,0-19.6-8.8-19.6-19.6s8.8-19.6,19.6-19.6s19.6,8.8,19.6,19.6
	C242,233.3,233.3,242.1,222.5,242.1z"/>
</svg>
