<?xml version="1.0" encoding="utf-8"?>
<!-- Generator: Adobe Illustrator 24.1.2, SVG Export Plug-In . SVG Version: 6.00 Build 0)  -->
<svg version="1.1" id="Layer_1" xmlns="http://www.w3.org/2000/svg" xmlns:xlink="http://www.w3.org/1999/xlink" x="0px" y="0px"
	 viewBox="0 0 64 64" style="enable-background:new 0 0 64 64;" xml:space="preserve">
<style type="text/css">
	.st0{stroke:#000000;stroke-width:5.3725;stroke-miterlimit:10;}
	.st1{fill:#336791;}
	.st2{fill:none;stroke:#FFFFFF;stroke-width:1.79;stroke-linecap:round;stroke-linejoin:round;stroke-miterlimit:10;}
	.st3{fill:none;stroke:#FFFFFF;stroke-width:1.79;stroke-linecap:round;stroke-linejoin:bevel;stroke-miterlimit:10;}
	.st4{fill:none;stroke:#FFFFFF;stroke-width:1.79;stroke-linejoin:round;stroke-miterlimit:10;}
	.st5{fill:#FFFFFF;stroke:#FFFFFF;stroke-width:0.5975;stroke-miterlimit:10;}
	.st6{fill:#FFFFFF;stroke:#FFFFFF;stroke-width:0.2975;stroke-miterlimit:10;}
</style>
<g>
	<path class="st0" d="M47.5,46.6c0.4-3.4,0.3-3.9,2.8-3.3l0.6,0.1c1.9,0.1,4.5-0.3,6-1c3.2-1.5,5.1-4,2-3.3c-7.2,1.5-7.8-1-7.8-1
		c7.6-11.3,10.8-25.7,8.1-29.2c-7.5-9.6-20.5-5.1-20.7-4.9l-0.1,0c-1.4-0.3-3-0.5-4.8-0.5c-3.3,0-5.8,0.9-7.6,2.3
		c0,0-23.2-9.6-22.1,12C4,22.3,10.4,52.4,18,43.3c2.8-3.3,5.4-6.2,5.4-6.2c1.3,0.9,2.9,1.3,4.6,1.2l0.1-0.1c0,0.4,0,0.9,0.1,1.3
		c-1.9,2.2-1.4,2.6-5.3,3.4c-3.9,0.8-1.6,2.3-0.1,2.6c1.8,0.5,6.1,1.1,9-2.9l-0.1,0.5c0.8,0.6,0.7,4.4,0.8,7.1
		c0.1,2.7,0.3,5.2,0.8,6.7c0.6,1.5,1.2,5.3,6.3,4.3C43.9,60.2,47.2,58.9,47.5,46.6"/>
	<path class="st1" d="M58.8,39c-7.2,1.5-7.8-1-7.8-1c7.6-11.3,10.8-25.7,8.1-29.2c-7.5-9.6-20.5-5.1-20.7-4.9l-0.1,0
		c-1.6-0.3-3.2-0.5-4.8-0.5c-3.3,0-5.8,0.9-7.6,2.3c0,0-23.2-9.6-22.1,12c0.2,4.6,6.6,34.8,14.1,25.6c2.8-3.4,5.5-6.2,5.5-6.2
		c1.3,0.9,2.9,1.3,4.6,1.2l0.1-0.1c0,0.4,0,0.9,0.1,1.3c-1.9,2.2-1.4,2.6-5.3,3.4c-3.9,0.8-1.6,2.3-0.1,2.6c1.8,0.5,6.1,1.1,9-2.9
		l-0.1,0.5c0.8,0.6,1.3,4,1.2,7c-0.1,3.1-0.1,5.1,0.5,6.8c0.6,1.6,1.2,5.3,6.3,4.3c4.3-0.9,6.5-3.3,6.8-7.3c0.2-2.8,0.7-2.4,0.7-4.9
		l0.4-1.2c0.5-3.8,0.1-5.1,2.7-4.5l0.6,0.1c1.9,0.1,4.5-0.3,6-1C60.1,40.8,62,38.3,58.8,39L58.8,39z"/>
	<g>
		<g>
			<path class="st2" d="M32,41.2c-0.2,7.1,0.1,14.3,0.7,16c0.7,1.7,2.2,5.1,7.3,4c4.3-0.9,5.8-2.7,6.5-6.6L48.2,42 M25.9,5.5
				c0,0-23.2-9.5-22.1,12.1c0.2,4.6,6.6,34.8,14.2,25.6c2.8-3.3,5.3-5.9,5.3-5.9 M38.4,3.8c-0.8,0.3,12.9-5,20.7,4.9
				c2.8,3.5-0.4,17.9-8.1,29.2"/>
			<path class="st3" d="M51.1,37.9c0,0,0.5,2.5,7.8,1c3.2-0.7,1.3,1.8-2,3.3c-2.6,1.2-8.5,1.5-8.6-0.2C48,37.7,51.3,39,51.1,37.9
				c-0.2-1-1.7-1.9-2.7-4.4c-0.9-2.1-11.9-18.2,3.1-15.8C52,17.6,47.5,3.5,33.5,3.3S20,20.5,20,20.5"/>
		</g>
		<g>
			<path class="st4" d="M28.1,39.4c-2,2.2-1.4,2.6-5.3,3.4c-3.9,0.8-1.6,2.3-0.1,2.6c1.8,0.5,6.1,1.1,9-2.9c0.9-1.2,0-3.2-1.2-3.7
				C29.9,38.6,29.1,38.3,28.1,39.4L28.1,39.4z"/>
			<path class="st2" d="M28,39.4c-0.2-1.3,0.4-2.8,1.1-4.6c1-2.7,3.3-5.4,1.5-13.8C29.2,14.6,20,19.6,20,20.5c0,0.9,0.4,4.3-0.1,8.4
				c-0.7,5.3,3.4,9.8,8.1,9.3"/>
		</g>
	</g>
	<g>
		<path class="st5" d="M25.8,20.4c0,0.3,0.5,1.1,1.3,1.2c0.8,0.1,1.4-0.5,1.4-0.8c0-0.3-0.5-0.6-1.3-0.7S25.8,20.1,25.8,20.4z"/>
		<path class="st6" d="M48.7,19.8c0,0.3-0.5,1.1-1.3,1.2C46.7,21,46,20.4,46,20.1c0-0.3,0.5-0.6,1.3-0.7
			C48,19.3,48.7,19.5,48.7,19.8z"/>
	</g>
	<path class="st2" d="M51.4,17.7c0.1,2.3-0.5,3.9-0.6,6.3c-0.1,3.6,1.7,7.6-1,11.7"/>
</g>
</svg>
