<?xml version="1.0" encoding="utf-8"?>
<!-- Generator: Adobe Illustrator 24.1.2, SVG Export Plug-In . SVG Version: 6.00 Build 0)  -->
<svg version="1.1" id="Capa_1" xmlns="http://www.w3.org/2000/svg" xmlns:xlink="http://www.w3.org/1999/xlink" x="0px" y="0px"
	 viewBox="0 0 512 512" style="enable-background:new 0 0 512 512;" xml:space="preserve">
<style type="text/css">
	.st0{fill:#5C5560;}
	.st1{fill:#3E8E33;}
	.st2{fill:#7FC029;}
	.st3{fill:#FDFEFD;}
</style>
<path class="st0" d="M512,256c0,46-12.2,89.3-33.4,126.6c-1.6,2.8-3.3,5.7-5.3,8.8c-27.1,43.5-67,78.2-114.3,99
	c-7.8,3.4-15.8,6.5-24,9.1c-4.8,1.6-9.7,3-14.7,4.3c-4.4,1.1-8.8,2.2-13.3,3.1c-16.5,3.3-33.6,5.1-51.1,5.1
	c-50.8,0-98.1-14.8-137.8-40.2c-26-16.7-48.9-37.9-67.3-62.6C18.9,366.4,0,313.4,0,256C0,120,106.1,8.7,240,0.5
	c3.3-0.2,6.7-0.3,10-0.4h0C252,0,254,0,256,0C397.4,0,512,114.6,512,256z"/>
<path class="st1" d="M478.6,382.6c-1.6,2.8-3.3,5.7-5.3,8.8c-27.1,43.5-67,78.2-114.3,99c-7.8,3.4-15.8,6.5-24,9.1
	c-4.8,1.6-9.7,3-14.7,4.3l32.2-444.8l40,35l43,1L478.6,382.6z"/>
<path class="st2" d="M334.5,64.9c-10.9-28.4-28.2-53.8-56.6-49.2C271.4,7,262.4,0.8,250.1,0.1h0C249.2,0,248.4,0,247.5,0
	c-2.5,0-5,0.2-7.5,0.5c-44.1,5.8-80.2,61.7-93.8,125.6l-61.7,20L50.8,409.1c18.5,24.7,41.3,46,67.3,62.6l188.9,35.1
	c9.5-1.9,18.8-4.4,27.9-7.3l17.5-440.5L334.5,64.9z M165.8,119.7c0,0,8.8-27.6,20.8-52.6c12-25,51-61,73-47.5
	c0.7,0.4,1.3,0.8,1.9,1.3c-25.3,11.7-45.1,38.9-55.2,85.7L165.8,119.7z M276.7,83.7l-49.6,16.1c0,0,9.5-51.5,44.5-64.1
	C279.4,55.6,276.7,83.7,276.7,83.7z M295,77.7c0,0,0-23.3-7.8-44.4c18,1.9,27.2,21.1,31.8,36.6L295,77.7z"/>
<path class="st3" d="M124.2,361.2c9,6.5,18,13.1,28.4,17.4c4.5,1.8,9,3.3,13.8,4c8.6,1.4,16.4,0.2,21.9-7.3
	c5.7-7.9,4.7-16.3,0.9-24.6c-2.6-5.7-7-10.1-11.7-14.2c-6-5.3-12.1-10.5-18.2-15.6c-19.8-16.7-26-38.4-22.5-63.3
	c6.1-43.4,38.3-74.3,81.9-79.7c18.7-2.3,37.1-2.1,55.3,4c4.1,1.4,4.5,3,3.2,6.8c-5.7,16.3-11.2,32.7-16.5,49.2
	c-1.1,3.3-2,3.9-5.4,2.5c-13.9-5.7-28.2-9.1-43.4-6.5c-10.5,1.8-19,6.4-21.9,17.6c-2.1,7.9,0.7,14.4,6.3,19.9
	c7.7,7.6,16.8,13.7,25.3,20.3c10.3,8,19.9,16.7,26.6,28.1c11.9,20.3,12,42,5.9,63.8c-10.5,36.9-42.1,56.7-80.2,51.9
	c-22.1-2.8-41.7-10.8-58.6-25.4c-3.8-3.3-5.2-6.2-3.4-11.5c4-11.1,7-22.5,10.4-33.9C122.8,363.5,122.8,362.2,124.2,361.2z"/>
</svg>
