<?xml version="1.0" encoding="utf-8"?>
<!-- Generator: Adobe Illustrator 24.1.2, SVG Export Plug-In . SVG Version: 6.00 Build 0)  -->
<svg version="1.1" id="Layer_1" xmlns="http://www.w3.org/2000/svg" xmlns:xlink="http://www.w3.org/1999/xlink" x="0px" y="0px"
	 viewBox="0 0 2500 2500" style="enable-background:new 0 0 2500 2500;" xml:space="preserve">
<style type="text/css">
	.st0{fill:#003B57;}
	.st1{fill:#0F80CC;}
	.st2{fill:url(#SVGID_1_);}
</style>
<path class="st0" d="M949.8,1240.4c-33.3,0-60.4,9.9-81.2,29.6c-20.8,19.7-31.3,45.6-31.3,77.3c0,16.4,2.6,31.4,7.8,45.1
	c5.2,13.7,13.2,26.5,24,38c10.8,11.5,32.4,27.2,64.5,47c39.5,24.1,65.3,43.6,77.7,58.9c12.4,15.3,18.6,31.2,18.6,47.9
	c0,22.3-7.3,40.1-22.4,53.5c-15.1,13.4-35.4,20.1-60.4,20.1c-26.5,0-49.5-9.3-69.3-27.8c-19.8-18.5-29.8-43.1-30-73.8h-12.3v111.6
	h12.3c3.8-10.6,9-16,15.8-16c3.3,0,10.9,2.3,22.9,6.5c29,10.3,52.9,15.3,71.7,15.3c32.3,0,59.9-11.3,82.9-34.3
	c22.9-23,34.5-50.7,34.5-83.1c0-25.1-7.6-47.4-22.7-66.9c-15-19.5-44.2-42.2-87.8-68.2c-37.5-22.6-61.9-40.9-73.2-55.2
	c-11.3-14.3-17.1-30.1-17.1-47.5c0-18.8,6.9-33.9,20.5-45.1c13.6-11.3,31.4-16.8,53.7-16.8c25.1,0,46,7.5,62.6,22.4
	c16.5,15,26.1,35.8,28.9,62.6h12.3v-96.7h-11.4c-1.4,4.9-2.7,8.1-3.9,9.5c-1.2,1.4-3.4,2.2-6.7,2.2c-4,0-11.1-1.7-21.2-5
	C988,1244.2,968.1,1240.4,949.8,1240.4L949.8,1240.4z M1351.9,1240.4c-40.6,0-77.4,9.6-110.7,28.7c-33.3,19.1-59.7,45.6-79.2,79.4
	c-19.5,33.8-29.1,69.7-29.1,107.9c0,51.4,16.8,97.1,50.7,137.3c33.9,40.1,74.6,65.1,121.7,74.7c10.8,5.6,26.2,20.1,46.4,43.6
	c22.8,26.5,42,45.6,57.8,57c15.5,11.2,32.7,19.7,50.9,25.3c18.1,5.5,37.6,8.2,58.7,8.2c25.6,0,48.5-4.4,68.6-13.6l-4.5-11.2
	c-11.7,4.2-24.2,6.3-37.3,6.3c-17.8,0-35.9-5.9-54-17.7c-18.1-11.8-40.6-34.4-67.5-67.8c-12.7-16-21.4-26-26.3-30
	c51.6-10.1,94-35.1,127.1-75.1c33.1-40,49.6-85.7,49.6-136.8c0-60.8-21.6-111.8-64.5-153.4
	C1467.3,1261.4,1414.5,1240.4,1351.9,1240.4L1351.9,1240.4z M1602.9,1240.4l0.6,13.2c27,0,42.2,8,45.5,24c1.3,5.7,1.8,16.3,1.9,31.5
	l-0.2,291.1c-0.2,21.7-3.3,35.6-9.3,41.7c-6,6-16,9.7-30.6,11.2l-0.6,13.2h269.3l6.9-66h-12.3c-3.5,18-11.6,30.9-24.4,38.2
	c-12.9,7.4-35.6,11-68.4,11h-25.5c-29.5,0-46.6-10.7-51.1-32.2c-0.9-4.2-1.3-8.8-1.3-13.8l1.1-294.4c0-21.7,2.7-36.3,8.4-43.4
	c5.7-7.1,16.1-11.1,31.1-12.1l-0.6-13.2L1602.9,1240.4L1602.9,1240.4z M1356.2,1256.4c45.8,0,83.1,18,112,54.4
	c28.9,36.4,43.2,86.2,43.2,149.3c0,59.8-14.5,107.7-43.6,143.7c-29.1,36-67.8,54-115.9,54c-46.2,0-83.7-18.5-112.4-55.7
	c-28.7-37.2-42.9-85.5-42.9-144.8c0-61,14.4-109.8,43.4-146.3C1268.8,1274.6,1307.6,1256.4,1356.2,1256.4L1356.2,1256.4z
	 M1975.6,1319c-6.6,0-11.6,2.2-15.3,6.7c-3.8,4.5-5,9.8-3.7,16.4c1.3,6.4,4.9,11.9,10.6,16.6c5.7,4.7,11.8,7.1,18.3,7.1
	c6.4,0,11.2-2.4,14.7-7.1c3.5-4.7,4.5-10.3,3.2-16.6c-1.3-6.6-4.8-11.9-10.1-16.4C1987.9,1321.2,1981.9,1319,1975.6,1319
	L1975.6,1319z M2153.2,1363.7c-11.2,42.9-35.4,66.2-72.5,69.9l0.4,12.3h43.4l-0.9,145.5c0.1,24.9,0.8,41.4,2.6,49.9
	c4.3,20.2,17.5,30.4,39.5,30.4c31.9,0,65.4-19.4,100.4-58.3l-10.6-9.1c-25.3,25.6-47.6,38.4-67.1,38.4c-12,0-19.4-6.9-22.2-20.5
	c-0.8-3.3-1.1-7.2-1.1-11.7l0.4-164.7h66.3l-0.6-19.6h-65.4v-62.6L2153.2,1363.7L2153.2,1363.7z M2409.4,1418.5
	c-37.1,0-67.2,18-90.6,53.7c-23.3,35.8-30.5,75.5-21.4,119.1c5.4,25.6,16.1,45.4,32.6,59.3c16.4,14,37.3,20.9,62.2,20.9
	c23.2,0,55.5-5.9,69.1-17.7c13.6-11.8,26.2-31,37.8-57.2l-9.3-9.7c-18.5,34-55.8,51.2-84,51.2c-38.7,0-62.4-21.2-71.2-63.5
	c-1.2-5.7-2.1-11.5-2.6-17.3c46-7.3,80.9-20.2,104.5-38.8c23.5-18.7,47.1-38.5,42.7-59.4c-2.6-12.4-9.1-22.2-19-29.6
	C2450,1422.3,2423.9,1418.5,2409.4,1418.5L2409.4,1418.5z M2004.3,1420l-79.9,18.3v14.2l27.6-3.5c13.4,0,21.3,6.1,23.7,18.1
	c0.8,4,1.4,9.7,1.5,16.8l-0.9,130.6c-0.2,18.1-2.2,28.6-6.3,31.7c-4.1,3.2-14.8,4.8-32.2,4.8l-0.4,12.3h126.7l-0.2-12.3
	c-17.6,0-29-1.4-34.1-4.1c-5-2.7-8.4-7.6-9.9-15.1c-1.1-5.4-1.7-14.7-1.7-27.6l0.4-184.3H2004.3L2004.3,1420z M2389.1,1444.2
	c7.7,0,15.2,3,22.7,8.8c7.4,5.8,11.9,12.4,13.4,19.4c7.2,34.7-23.5,58.7-92.8,72.1c-2-25.3,2.4-48.3,13.6-69.1
	C2357,1454.7,2371.5,1444.2,2389.1,1444.2L2389.1,1444.2z"/>
<path class="st1" d="M770.9,742H83.7C37.7,742,0,779.6,0,825.7v757.9c0,46.1,37.7,83.7,83.7,83.7h452.6
	C531.2,1442.1,608.1,1005,770.9,742L770.9,742z"/>
<linearGradient id="SVGID_1_" gradientUnits="userSpaceOnUse" x1="499.807" y1="2000.6359" x2="499.807" y2="1999.7119" gradientTransform="matrix(721.5479 0 0 -761.8701 -360249.5 1525006.625)">
	<stop  offset="0" style="stop-color:#97D9F6"/>
	<stop  offset="0.9202" style="stop-color:#0F80CC"/>
	<stop  offset="1" style="stop-color:#0F80CC"/>
</linearGradient>
<path class="st2" d="M746,766.4H83.7c-32.7,0-59.3,26.6-59.3,59.3v702.6c150-57.6,375.1-107.2,530.7-105
	C586.4,1259.7,678.4,939.2,746,766.4L746,766.4z"/>
<path class="st0" d="M931.2,717.1c-47.1-42-104.1-25.1-160.3,24.8c-8.3,7.4-16.7,15.6-25,24.4c-96.2,102.1-185.5,291.1-213.3,435.5
	c10.8,21.9,19.3,49.9,24.8,71.3c1.4,5.5,2.7,10.6,3.7,15c2.4,10.4,3.8,17.1,3.8,17.1s-0.9-3.3-4.4-13.5c-0.7-2-1.4-4.1-2.3-6.6
	c-0.5-1.2-1-2.5-1.5-3.7c-6.3-14.6-23.6-45.4-31.3-58.8c-6.1,17.8-11.8,35.6-17.1,53.6c22.1,40.4,35.5,109.5,35.5,109.5
	s-1.2-4.5-6.7-20.1c-4.9-13.8-29.4-56.8-35.2-66.8c-9.9,36.7-13.9,61.4-10.3,67.4c6.9,11.7,13.5,31.8,19.3,54.1
	c13.1,50.2,22.1,111.3,22.1,111.3s0.3,4.1,0.8,10.3c-1.8,42.2-0.7,85.9,2.5,125.4c4.3,52.3,12.5,97.2,22.8,121.3l7-3.8
	c-15.2-47.4-21.4-109.4-18.7-181c4.1-109.4,29.3-241.4,75.8-378.9c78.6-207.6,187.7-374.2,287.5-453.8
	c-91,82.2-214.1,348.1-251,446.6c-41.3,110.3-70.5,213.8-88.1,312.9c30.4-93,128.8-132.9,128.8-132.9s48.2-59.5,104.6-144.5
	c-33.8,7.7-89.2,20.9-107.8,28.7c-27.4,11.5-34.8,15.4-34.8,15.4s88.7-54,164.8-78.5C932,1053.8,1046.1,819.6,931.2,717.1"/>
</svg>
