<?xml version="1.0" encoding="utf-8"?>
<!-- Generator: Adobe Illustrator 24.1.2, SVG Export Plug-In . SVG Version: 6.00 Build 0)  -->
<svg version="1.1" id="Capa_1" xmlns="http://www.w3.org/2000/svg" xmlns:xlink="http://www.w3.org/1999/xlink" x="0px" y="0px"
	 viewBox="0 0 512 512" style="enable-background:new 0 0 512 512;" xml:space="preserve">
<style type="text/css">
	.st0{fill:#FF5722;}
</style>
<path class="st0" d="M315.6,32c225.1,150.2,152.1,315.3,152.1,315.3S531.6,418,505.9,480c0,0-26.5-43.3-70.6-43.3
	c-42.6,0-67.7,43.3-153.7,43.3C90.6,480,0,323.4,0,323.4c172.2,111.4,289.9,32.4,289.9,32.4C212.1,311.7,47.2,100.6,47.2,100.6
	C191,220.6,253,252.1,253,252.1c-37.3-30-141.3-176.7-141.3-176.7C194.9,157.9,360.3,273,360.3,273C407.7,145.8,315.6,32,315.6,32z"
	/>
</svg>
